<?xml version="1.0" encoding="UTF-8" standalone="no"?>
<!-- Created with Inkscape (http://www.inkscape.org/) -->

<svg
   version="1.1"
   id="svg1"
   width="79.948181"
   height="80.500244"
   viewBox="0 0 79.948181 80.500243"
   xmlns="http://www.w3.org/2000/svg"
   xmlns:svg="http://www.w3.org/2000/svg">
  <defs
     id="defs1">
    <clipPath
       clipPathUnits="userSpaceOnUse"
       id="clipPath3">
      <path
         d="M 0,841.89 H 595.276 V 0 H 0 Z"
         transform="translate(-240.19341,-516.62812)"
         id="path3" />
    </clipPath>
    <clipPath
       clipPathUnits="userSpaceOnUse"
       id="clipPath5">
      <path
         d="M 0,841.89 H 595.276 V 0 H 0 Z"
         transform="translate(-247.21971,-521.46791)"
         id="path5" />
    </clipPath>
    <clipPath
       clipPathUnits="userSpaceOnUse"
       id="clipPath7">
      <path
         d="M 0,841.89 H 595.276 V 0 H 0 Z"
         transform="translate(-258.7012,-524.74912)"
         id="path7" />
    </clipPath>
    <clipPath
       clipPathUnits="userSpaceOnUse"
       id="clipPath9">
      <path
         d="M 0,841.89 H 595.276 V 0 H 0 Z"
         transform="translate(-265.3945,-522.28432)"
         id="path9" />
    </clipPath>
    <clipPath
       clipPathUnits="userSpaceOnUse"
       id="clipPath11">
      <path
         d="M 0,841.89 H 595.276 V 0 H 0 Z"
         transform="translate(-277.63771,-523.94641)"
         id="path11" />
    </clipPath>
    <clipPath
       clipPathUnits="userSpaceOnUse"
       id="clipPath13">
      <path
         d="M 0,841.89 H 595.276 V 0 H 0 Z"
         transform="translate(-281.51371,-517.56161)"
         id="path13" />
    </clipPath>
    <clipPath
       clipPathUnits="userSpaceOnUse"
       id="clipPath15">
      <path
         d="M 0,841.89 H 595.276 V 0 H 0 Z"
         transform="translate(-239.17971,-507.43861)"
         id="path15" />
    </clipPath>
    <clipPath
       clipPathUnits="userSpaceOnUse"
       id="clipPath17">
      <path
         d="M 0,841.89 H 595.276 V 0 H 0 Z"
         transform="translate(-238.88481,-506.14762)"
         id="path17" />
    </clipPath>
    <clipPath
       clipPathUnits="userSpaceOnUse"
       id="clipPath19">
      <path
         d="M 0,841.89 H 595.276 V 0 H 0 Z"
         transform="translate(-234.97171,-503.26481)"
         id="path19" />
    </clipPath>
    <clipPath
       clipPathUnits="userSpaceOnUse"
       id="clipPath21">
      <path
         d="M 0,841.89 H 595.276 V 0 H 0 Z"
         transform="translate(-237.4219,-499.54021)"
         id="path21" />
    </clipPath>
    <clipPath
       clipPathUnits="userSpaceOnUse"
       id="clipPath23">
      <path
         d="M 0,841.89 H 595.276 V 0 H 0 Z"
         transform="translate(-237.3418,-495.88391)"
         id="path23" />
    </clipPath>
    <clipPath
       clipPathUnits="userSpaceOnUse"
       id="clipPath25">
      <path
         d="M 0,841.89 H 595.276 V 0 H 0 Z"
         transform="translate(-238.87401,-488.00501)"
         id="path25" />
    </clipPath>
    <clipPath
       clipPathUnits="userSpaceOnUse"
       id="clipPath27">
      <path
         d="M 0,841.89 H 595.276 V 0 H 0 Z"
         transform="translate(-239.03811,-486.63981)"
         id="path27" />
    </clipPath>
    <clipPath
       clipPathUnits="userSpaceOnUse"
       id="clipPath29">
      <path
         d="M 0,841.89 H 595.276 V 0 H 0 Z"
         transform="translate(-241.55961,-483.20621)"
         id="path29" />
    </clipPath>
    <clipPath
       clipPathUnits="userSpaceOnUse"
       id="clipPath31">
      <path
         d="M 0,841.89 H 595.276 V 0 H 0 Z"
         transform="translate(-242.56641,-481.05381)"
         id="path31" />
    </clipPath>
    <clipPath
       clipPathUnits="userSpaceOnUse"
       id="clipPath33">
      <path
         d="M 0,841.89 H 595.276 V 0 H 0 Z"
         transform="translate(-249.03811,-475.36831)"
         id="path33" />
    </clipPath>
    <clipPath
       clipPathUnits="userSpaceOnUse"
       id="clipPath35">
      <path
         d="M 0,841.89 H 595.276 V 0 H 0 Z"
         transform="translate(-250.1836,-474.31951)"
         id="path35" />
    </clipPath>
    <clipPath
       clipPathUnits="userSpaceOnUse"
       id="clipPath37">
      <path
         d="M 0,841.89 H 595.276 V 0 H 0 Z"
         transform="translate(-253.66021,-472.73351)"
         id="path37" />
    </clipPath>
    <clipPath
       clipPathUnits="userSpaceOnUse"
       id="clipPath39">
      <path
         d="M 0,841.89 H 595.276 V 0 H 0 Z"
         transform="translate(-257.9014,-471.52651)"
         id="path39" />
    </clipPath>
    <clipPath
       clipPathUnits="userSpaceOnUse"
       id="clipPath41">
      <path
         d="M 0,841.89 H 595.276 V 0 H 0 Z"
         transform="translate(-262.0537,-471.01481)"
         id="path41" />
    </clipPath>
    <clipPath
       clipPathUnits="userSpaceOnUse"
       id="clipPath43">
      <path
         d="M 0,841.89 H 595.276 V 0 H 0 Z"
         transform="translate(-265.69821,-471.19251)"
         id="path43" />
    </clipPath>
    <clipPath
       clipPathUnits="userSpaceOnUse"
       id="clipPath45">
      <path
         d="M 0,841.89 H 595.276 V 0 H 0 Z"
         transform="translate(-271.1914,-469.74331)"
         id="path45" />
    </clipPath>
    <clipPath
       clipPathUnits="userSpaceOnUse"
       id="clipPath47">
      <path
         d="M 0,841.89 H 595.276 V 0 H 0 Z"
         transform="translate(-273.23631,-473.67491)"
         id="path47" />
    </clipPath>
    <clipPath
       clipPathUnits="userSpaceOnUse"
       id="clipPath49">
      <path
         d="M 0,841.89 H 595.276 V 0 H 0 Z"
         transform="translate(-276.5605,-475.46011)"
         id="path49" />
    </clipPath>
    <clipPath
       clipPathUnits="userSpaceOnUse"
       id="clipPath51">
      <path
         d="M 0,841.89 H 595.276 V 0 H 0 Z"
         transform="translate(-279.03421,-476.59291)"
         id="path51" />
    </clipPath>
    <clipPath
       clipPathUnits="userSpaceOnUse"
       id="clipPath53">
      <path
         d="M 0,841.89 H 595.276 V 0 H 0 Z"
         transform="translate(-285.61041,-483.67691)"
         id="path53" />
    </clipPath>
    <clipPath
       clipPathUnits="userSpaceOnUse"
       id="clipPath55">
      <path
         d="M 0,841.89 H 595.276 V 0 H 0 Z"
         transform="translate(-286.69921,-487.29601)"
         id="path55" />
    </clipPath>
    <clipPath
       clipPathUnits="userSpaceOnUse"
       id="clipPath57">
      <path
         d="M 0,841.89 H 595.276 V 0 H 0 Z"
         transform="translate(-288.82321,-495.00701)"
         id="path57" />
    </clipPath>
    <clipPath
       clipPathUnits="userSpaceOnUse"
       id="clipPath59">
      <path
         d="M 0,841.89 H 595.276 V 0 H 0 Z"
         transform="translate(-288.5908,-495.82921)"
         id="path59" />
    </clipPath>
    <clipPath
       clipPathUnits="userSpaceOnUse"
       id="clipPath61">
      <path
         d="M 0,841.89 H 595.276 V 0 H 0 Z"
         transform="translate(-288.39451,-500.42881)"
         id="path61" />
    </clipPath>
    <clipPath
       clipPathUnits="userSpaceOnUse"
       id="clipPath63">
      <path
         d="M 0,841.89 H 595.276 V 0 H 0 Z"
         transform="translate(-288.02341,-502.57732)"
         id="path63" />
    </clipPath>
    <clipPath
       clipPathUnits="userSpaceOnUse"
       id="clipPath65">
      <path
         d="M 0,841.89 H 595.276 V 0 H 0 Z"
         transform="translate(-289.68951,-507.63982)"
         id="path65" />
    </clipPath>
    <clipPath
       clipPathUnits="userSpaceOnUse"
       id="clipPath67">
      <path
         d="M 0,841.89 H 595.276 V 0 H 0 Z"
         transform="translate(-281.3428,-479.15541)"
         id="path67" />
    </clipPath>
    <clipPath
       clipPathUnits="userSpaceOnUse"
       id="clipPath69">
      <path
         d="M 0,841.89 H 595.276 V 0 H 0 Z"
         transform="translate(-239.5273,-497.19061)"
         id="path69" />
    </clipPath>
    <radialGradient
       fx="-0.0402571"
       fy="-0.032278899"
       cx="0"
       cy="0"
       r="1"
       gradientUnits="userSpaceOnUse"
       gradientTransform="matrix(23.922098,0,0,-23.922098,253.57434,507.83286)"
       spreadMethod="pad"
       id="radialGradient70">
      <stop
         style="stop-opacity:1;stop-color:#f3f7f1"
         offset="0"
         id="stop69" />
      <stop
         style="stop-opacity:1;stop-color:#016965"
         offset="1"
         id="stop70" />
    </radialGradient>
    <radialGradient
       fx="-0.0402571"
       fy="-0.032278899"
       cx="0"
       cy="0"
       r="1"
       gradientUnits="userSpaceOnUse"
       gradientTransform="matrix(23.923084,0,0,-23.923084,253.57323,507.85211)"
       spreadMethod="pad"
       id="radialGradient72">
      <stop
         style="stop-opacity:1;stop-color:#f3f7f1"
         offset="0"
         id="stop71" />
      <stop
         style="stop-opacity:1;stop-color:#016965"
         offset="1"
         id="stop72" />
    </radialGradient>
    <radialGradient
       fx="-0.0402571"
       fy="-0.032278899"
       cx="0"
       cy="0"
       r="1"
       gradientUnits="userSpaceOnUse"
       gradientTransform="matrix(23.91581,0,0,-23.91581,253.57211,507.84586)"
       spreadMethod="pad"
       id="radialGradient74">
      <stop
         style="stop-opacity:1;stop-color:#f3f7f1"
         offset="0"
         id="stop73" />
      <stop
         style="stop-opacity:1;stop-color:#016965"
         offset="1"
         id="stop74" />
    </radialGradient>
    <radialGradient
       fx="-0.0402571"
       fy="-0.032278899"
       cx="0"
       cy="0"
       r="1"
       gradientUnits="userSpaceOnUse"
       gradientTransform="matrix(23.917002,0,0,-23.917002,253.57411,507.84723)"
       spreadMethod="pad"
       id="radialGradient76">
      <stop
         style="stop-opacity:1;stop-color:#f3f7f1"
         offset="0"
         id="stop75" />
      <stop
         style="stop-opacity:1;stop-color:#016965"
         offset="1"
         id="stop76" />
    </radialGradient>
    <radialGradient
       fx="-0.0402571"
       fy="-0.032278899"
       cx="0"
       cy="0"
       r="1"
       gradientUnits="userSpaceOnUse"
       gradientTransform="matrix(23.914751,0,0,-23.914751,253.57353,507.84549)"
       spreadMethod="pad"
       id="radialGradient78">
      <stop
         style="stop-opacity:1;stop-color:#f3f7f1"
         offset="0"
         id="stop77" />
      <stop
         style="stop-opacity:1;stop-color:#016965"
         offset="1"
         id="stop78" />
    </radialGradient>
  </defs>
  <g
     id="layer-MC0"
     transform="translate(-310.63852,-419.07587)">
    <path
       id="path2"
       d="M 0,0 2.565,2.65 5.466,-0.094 2.896,-2.746 Z M -0.522,-0.506 2.417,-3.289 2.918,-3.785 3.43,-3.248 3.364,-3.193 5.93,-0.537 6.023,-0.625 6.55,-0.082 6.023,0.387 3.055,3.197 2.59,3.662 2.19,3.213 -0.57,0.361 -1.006,-0.068 Z m 3.235,-1.93 0.363,0.397 1.658,1.717 L 5.141,0.074 4.671,0.52 4.364,0.178 C 4.353,0.33 4.349,0.467 4.339,0.596 L 4.13,0.592 3.835,0.576 C 3.783,0.574 3.714,0.576 3.623,0.584 L 3.955,0.893 3.467,1.35 3.206,1.061 2.683,0.514 2.246,0.92 2.805,1.492 3.192,1.859 2.705,2.32 2.318,1.898 0.74,0.264 0.365,-0.098 0.846,-0.559 1.198,-0.166 1.745,0.4 2.171,-0.008 1.737,-0.461 1.363,-0.83 1.843,-1.277 2.196,-0.891 2.63,-0.441 3.221,-1.002 2.631,-1.609 2.243,-1.99 Z M 3.725,-0.479 3.135,0.08 3.426,0.383 C 3.43,0.221 3.42,0.072 3.39,-0.057 c 0.278,0.034 0.456,0.039 0.533,0.032 0.08,-0.006 0.159,-0.016 0.217,-0.026 z"
       style="fill:#016965;fill-opacity:1;fill-rule:nonzero;stroke:none"
       transform="matrix(1.3333333,0,0,-1.3333333,320.25787,433.68253)"
       clip-path="url(#clipPath3)" />
    <path
       id="path4"
       d="M 0,0 -0.136,0.295 -0.45,0.883 -0.66,1.26 -0.044,1.553 1.412,2.301 C 1.306,2.34 1.161,2.381 0.98,2.42 1.041,2.49 1.101,2.557 1.145,2.619 1.188,2.68 1.275,2.816 1.408,3.027 1.754,2.951 2.01,2.887 2.178,2.838 2.14,2.771 2.112,2.707 2.09,2.652 L 3.651,3.455 4.209,3.768 4.398,3.371 4.712,2.781 4.885,2.486 4.193,2.135 4.046,2.436 3.842,2.826 0.339,1.01 0.527,0.639 0.693,0.355 Z m 2.492,-1.383 c 0.291,0.42 0.506,0.778 0.638,1.055 C 3.097,-0.293 3.055,-0.264 3.018,-0.24 2.812,-0.57 2.623,-0.857 2.442,-1.1 2.271,-1.35 1.993,-1.666 1.606,-2.045 c -0.074,0.068 -0.15,0.121 -0.214,0.162 -0.071,0.053 -0.208,0.129 -0.41,0.238 0.201,0.147 0.366,0.282 0.499,0.411 0.139,0.132 0.294,0.308 0.474,0.527 0.172,0.228 0.336,0.465 0.478,0.715 L 2.348,0.027 C 2.13,-0.213 1.966,-0.389 1.846,-0.5 1.727,-0.617 1.525,-0.793 1.254,-1.043 1.187,-0.98 1.116,-0.926 1.059,-0.885 0.996,-0.84 0.85,-0.754 0.614,-0.627 c 0.169,0.106 0.385,0.264 0.663,0.463 0.281,0.199 0.59,0.535 0.928,1.004 L 1.408,0.43 0.947,0.174 0.647,0.746 1.122,0.975 3.381,2.143 3.899,2.422 4.194,1.844 3.671,1.588 2.872,1.178 C 2.971,1.16 3.071,1.146 3.182,1.131 3.042,0.928 2.909,0.723 2.782,0.527 3.011,0.496 3.156,0.465 3.217,0.434 l 0.18,-0.09 c 0.273,0.5 0.426,0.801 0.462,0.908 L 3.998,1.637 C 4.083,1.6 4.164,1.574 4.234,1.553 4.304,1.531 4.49,1.5 4.796,1.461 4.628,1.17 4.485,0.916 4.363,0.691 4.454,0.598 4.595,0.465 4.786,0.301 4.979,0.135 5.24,0.016 5.568,-0.057 5.903,-0.135 6.23,-0.154 6.557,-0.123 6.519,-0.27 6.486,-0.387 6.471,-0.48 6.449,-0.574 6.429,-0.732 6.41,-0.953 5.942,-0.922 5.585,-0.865 5.329,-0.77 5.072,-0.678 4.85,-0.568 4.651,-0.439 4.456,-0.303 4.241,-0.123 4.002,0.117 L 3.859,-0.094 C 3.921,-0.182 3.978,-0.262 4.023,-0.332 4.072,-0.406 4.152,-0.549 4.271,-0.762 4.383,-0.977 4.46,-1.158 4.503,-1.301 4.543,-1.457 4.538,-1.621 4.479,-1.787 4.424,-1.953 4.179,-2.15 3.755,-2.377 3.581,-2.17 3.464,-2.045 3.404,-2 l -0.229,0.18 c 0.306,0.103 0.485,0.191 0.525,0.279 0.048,0.08 0.049,0.184 0.004,0.291 -0.041,0.113 -0.08,0.205 -0.113,0.268 l -0.03,0.068 C 3.432,-1.15 3.263,-1.414 3.054,-1.723 2.84,-2.023 2.649,-2.268 2.479,-2.439 L 1.905,-3.074 c -0.168,0.129 -0.289,0.215 -0.373,0.258 l -0.296,0.15 c 0.546,0.428 0.963,0.859 1.256,1.283"
       style="fill:#016965;fill-opacity:1;fill-rule:nonzero;stroke:none"
       transform="matrix(1.3333333,0,0,-1.3333333,329.62627,427.22947)"
       clip-path="url(#clipPath5)" />
    <path
       id="path6"
       d="M 0,0 1.317,0.205 1.423,-0.475 0.109,-0.684 Z M -0.21,1.342 1.104,1.545 1.213,0.85 -0.101,0.645 Z m -1.676,-1.633 1.149,0.178 0.111,-0.684 -1.15,-0.18 z m -0.977,1.387 0.365,-2.317 0.078,-0.625 0.765,0.121 -0.021,0.088 1.157,0.182 0.138,-0.879 c 0.021,-0.131 0.052,-0.24 0.093,-0.324 0.047,-0.074 0.126,-0.139 0.254,-0.188 0.125,-0.049 0.303,-0.058 0.538,-0.017 0.233,0.033 0.536,0.074 0.91,0.125 0.389,0.049 0.678,0.09 0.863,0.125 0.188,0.043 0.326,0.09 0.407,0.136 0.09,0.053 0.165,0.129 0.228,0.231 0.066,0.1 0.129,0.363 0.187,0.793 -0.223,0.043 -0.485,0.119 -0.783,0.24 L 2.315,-1.457 C 2.318,-1.613 2.287,-1.729 2.218,-1.801 2.151,-1.877 2.058,-1.926 1.939,-1.957 1.819,-1.988 1.617,-2.021 1.329,-2.057 L 0.665,-2.145 C 0.524,-2.162 0.43,-2.152 0.389,-2.119 0.346,-2.074 0.325,-2.031 0.315,-1.979 L 0.213,-1.344 1.528,-1.137 1.547,-1.254 2.306,-1.137 2.195,-0.545 1.823,1.826 1.757,2.357 1.267,2.266 -0.316,2.02 -0.369,2.357 -0.431,2.834 -1.197,2.717 -1.103,2.242 -1.054,1.902 -2.392,1.693 -2.97,1.625 Z m 0.766,-0.049 1.151,0.182 0.114,-0.7 -1.154,-0.177 z"
       style="fill:#016965;fill-opacity:1;fill-rule:nonzero;stroke:none"
       transform="matrix(1.3333333,0,0,-1.3333333,344.93493,422.85453)"
       clip-path="url(#clipPath7)" />
    <path
       id="path8"
       d="m 0,0 0.131,0.795 0.13,0.734 C 0.389,1.35 0.474,1.219 0.512,1.148 0.55,1.072 0.592,1.002 0.627,0.928 0.897,1.184 1.065,1.357 1.139,1.447 1.21,1.531 1.275,1.611 1.32,1.68 L 1.372,1.504 C 1.384,1.473 1.392,1.389 1.406,1.244 l 0.163,0.11 C 1.668,1.416 1.84,1.49 2.086,1.578 1.988,1.891 1.888,2.186 1.777,2.471 l 0.1,0.195 C 1.912,2.736 1.979,2.887 2.078,3.125 2.232,2.859 2.326,2.689 2.361,2.615 2.392,2.549 2.455,2.383 2.534,2.135 L 2.396,1.896 C 2.3,1.727 2.177,1.57 2.033,1.406 1.893,1.252 1.697,1.096 1.462,0.936 1.642,0.791 1.762,0.686 1.817,0.621 1.876,0.557 1.933,0.488 1.997,0.414 2.131,0.51 2.243,0.607 2.326,0.693 2.412,0.779 2.596,0.984 2.867,1.307 L 2.965,0.951 C 2.979,0.92 2.997,0.809 3.031,0.627 3.275,0.799 3.497,0.939 3.688,1.043 L 3.62,1.26 C 3.615,1.275 3.506,1.561 3.305,2.098 l 0.153,0.361 c 0.054,0.135 0.124,0.32 0.206,0.545 l 0.12,0.35 C 3.794,3.391 3.813,3.453 3.845,3.533 3.601,3.592 3.361,3.668 3.111,3.764 L 3.078,3.572 C 3.06,3.469 3.002,3.275 2.907,2.982 2.826,3.148 2.756,3.297 2.688,3.424 L 2.538,3.33 C 2.449,3.273 2.305,3.219 2.102,3.172 l 0.125,0.305 c 0,0.007 0.014,0.052 0.046,0.15 0.038,0.088 0.062,0.17 0.086,0.23 C 2.071,3.932 1.835,4.021 1.643,4.119 L 1.589,3.873 C 1.569,3.771 1.543,3.678 1.513,3.586 1.487,3.5 1.451,3.402 1.409,3.307 1.32,3.494 1.24,3.662 1.177,3.818 0.995,3.719 0.874,3.656 0.809,3.639 0.746,3.621 0.685,3.602 0.623,3.586 L 0.77,4.416 4.195,3.822 3.571,0.279 C 3.556,0.207 3.534,0.162 3.5,0.123 3.464,0.086 3.373,0.082 3.221,0.113 3.095,0.141 2.961,0.172 2.821,0.223 L 2.88,0.012 C 2.935,-0.186 2.953,-0.336 2.949,-0.434 2.947,-0.537 2.938,-0.609 2.938,-0.67 c 0.388,-0.041 0.677,-0.045 0.861,-0.016 0.181,0.032 0.3,0.094 0.347,0.196 0.049,0.107 0.083,0.222 0.107,0.344 L 4.926,3.668 5.071,4.398 4.342,4.502 0.853,5.107 0.115,5.262 0,4.525 -0.639,0.926 -0.791,0.141 Z M 0.604,3.465 0.719,3.227 C 0.749,3.164 0.853,2.93 1.021,2.527 0.902,2.293 0.784,2.113 0.677,1.996 0.567,1.871 0.434,1.748 0.272,1.619 Z"
       style="fill:#016965;fill-opacity:1;fill-rule:nonzero;stroke:none"
       transform="matrix(1.3333333,0,0,-1.3333333,353.85933,426.14093)"
       clip-path="url(#clipPath9)" />
    <path
       id="path10"
       d="M 0,0 C 0.204,-0.154 0.442,-0.295 0.712,-0.424 0.659,-0.496 0.627,-0.561 0.591,-0.627 0.556,-0.687 0.523,-0.766 0.49,-0.861 0.455,-0.963 0.419,-1.145 0.382,-1.412 0.346,-1.674 0.368,-1.924 0.444,-2.15 0.521,-2.381 0.593,-2.551 0.659,-2.672 0.719,-2.793 0.785,-2.889 0.834,-2.965 0.894,-3.041 1.008,-3.166 1.187,-3.336 1.107,-3.363 1.027,-3.396 0.955,-3.439 0.88,-3.475 0.696,-3.598 0.394,-3.799 0.178,-3.508 0,-3.207 -0.123,-2.895 c -0.124,0.315 -0.201,0.596 -0.229,0.86 -0.028,0.256 -0.027,0.502 0.001,0.742 0.032,0.232 0.063,0.428 0.102,0.574 C -0.21,-0.574 -0.127,-0.334 0,0 m -3.919,-2.707 c 0.122,0.023 0.286,0.072 0.497,0.144 0.206,0.077 0.421,0.165 0.644,0.264 0.222,0.102 0.445,0.229 0.667,0.383 0.226,0.148 0.364,0.254 0.424,0.303 l 0.122,0.113 c 0.14,-0.283 0.299,-0.547 0.477,-0.799 -0.125,-0.06 -0.213,-0.101 -0.271,-0.131 l -0.489,-0.236 c -0.232,-0.105 -0.467,-0.205 -0.7,-0.297 -0.23,-0.088 -0.514,-0.183 -0.852,-0.283 0.698,-0.35 1.39,-0.684 2.072,-1.018 -0.031,0.328 -0.056,0.541 -0.079,0.641 l -0.078,0.391 c 0.319,-0.039 0.529,-0.045 0.626,-0.03 l 0.163,0.022 c 0.13,-0.91 0.221,-1.656 0.285,-2.229 -0.436,-0.06 -0.653,-0.09 -0.666,-0.095 l -0.229,-0.051 c 0.011,0.088 0.015,0.174 0.02,0.246 0.007,0.072 -0.002,0.207 -0.016,0.408 -0.35,0.162 -0.848,0.385 -1.508,0.67 -0.654,0.285 -1.057,0.451 -1.211,0.516 -0.151,0.056 -0.33,0.113 -0.54,0.164 0.07,0.3 0.093,0.513 0.088,0.648 l -0.009,0.211 c 0.25,0.008 0.443,0.023 0.563,0.045 m 0.087,1.287 c -0.05,0.328 -0.105,0.559 -0.145,0.674 l -0.077,0.191 c 0.266,-0.033 0.573,-0.002 0.918,0.086 0.343,0.088 0.67,0.207 0.984,0.35 0.313,0.152 0.585,0.324 0.819,0.527 l 0.147,0.125 c 0.151,-0.254 0.323,-0.478 0.511,-0.678 -0.389,-0.228 -0.719,-0.419 -0.988,-0.566 -0.272,-0.152 -0.615,-0.293 -1.035,-0.422 -0.419,-0.125 -0.801,-0.222 -1.134,-0.287"
       style="fill:#016965;fill-opacity:1;fill-rule:nonzero;stroke:none"
       transform="matrix(1.3333333,0,0,-1.3333333,370.1836,423.9248)"
       clip-path="url(#clipPath11)" />
    <path
       id="path12"
       d="m 0,0 -0.775,-0.721 -0.454,-0.381 0.436,-0.429 1.265,-1.336 0.442,-0.502 0.416,0.42 0.776,0.72 0.423,0.354 L 2.054,-1.408 0.791,-0.064 0.39,0.391 Z M 1.935,1.178 4.327,-1.357 1.581,-3.902 C 1.494,-3.98 1.432,-4.02 1.385,-4.023 1.338,-4.027 1.272,-3.982 1.183,-3.895 1.147,-3.867 1.095,-3.807 1.03,-3.729 0.958,-3.645 0.891,-3.566 0.829,-3.498 L 0.737,-3.721 C 0.681,-3.844 0.628,-3.945 0.562,-4.023 0.502,-4.105 0.442,-4.18 0.389,-4.242 c 0.362,-0.338 0.62,-0.533 0.789,-0.594 0.16,-0.06 0.276,-0.082 0.346,-0.055 0.068,0.02 0.171,0.098 0.306,0.223 L 4.887,-1.848 5.37,-1.434 4.884,-0.943 2.44,1.646 1.906,2.236 1.371,1.746 Z M 3.091,-0.889 1.316,0.992 0.856,1.506 0.33,1.023 0.82,0.533 2.598,-1.35 l 0.506,-0.566 0.53,0.488 z m -3.304,-0.289 0.605,0.559 1.115,-1.172 -0.603,-0.563 z"
       style="fill:#016965;fill-opacity:1;fill-rule:nonzero;stroke:none"
       transform="matrix(1.3333333,0,0,-1.3333333,375.3516,432.43787)"
       clip-path="url(#clipPath13)" />
    <path
       id="path14"
       d="m 0,0 0.166,-0.168 -0.161,-0.33 -1.31,0.268 0.034,0.427 c 0.323,0 0.601,0.059 0.842,0.178 0.24,0.121 0.411,0.287 0.515,0.496 0.075,0.156 0.1,0.305 0.073,0.436 C 0.13,1.437 0.057,1.535 -0.061,1.588 -0.263,1.684 -0.585,1.477 -1.018,0.961 -1.081,0.891 -1.128,0.836 -1.165,0.803 -1.482,0.432 -1.769,0.215 -2.022,0.139 -2.278,0.064 -2.559,0.098 -2.875,0.25 c -0.41,0.201 -0.687,0.484 -0.819,0.844 -0.134,0.367 -0.107,0.746 0.093,1.146 0.085,0.174 0.191,0.326 0.319,0.465 0.123,0.141 0.275,0.26 0.437,0.365 L -3.063,3.25 -2.907,3.566 -1.254,3.281 -1.295,2.805 C -1.72,2.814 -2.075,2.758 -2.378,2.621 -2.68,2.486 -2.893,2.299 -3.014,2.041 -3.104,1.865 -3.123,1.689 -3.083,1.527 -3.041,1.354 -2.951,1.236 -2.813,1.17 -2.61,1.074 -2.31,1.24 -1.92,1.68 c 0.05,0.06 0.09,0.103 0.116,0.134 0.198,0.211 0.36,0.374 0.483,0.497 0.124,0.123 0.229,0.197 0.303,0.236 0.158,0.074 0.333,0.115 0.514,0.111 C -0.322,2.652 -0.142,2.609 0.04,2.521 0.398,2.352 0.635,2.094 0.755,1.744 0.872,1.398 0.845,1.045 0.67,0.687 0.595,0.541 0.503,0.408 0.394,0.293 0.283,0.18 0.151,0.084 0,0"
       style="fill:#016965;fill-opacity:1;fill-rule:nonzero;stroke:none"
       transform="matrix(1.3333333,0,0,-1.3333333,318.90627,445.9352)"
       clip-path="url(#clipPath15)" />
    <path
       id="path16"
       d="m 0,0 -0.989,-3.033 -1.4,-0.02 -0.04,0.405 c 0.365,0.043 0.634,0.125 0.818,0.242 0.184,0.117 0.309,0.301 0.387,0.533 l 0.017,0.059 -2.306,0.732 c -0.319,0.1 -0.533,0.129 -0.641,0.1 -0.11,-0.028 -0.193,-0.129 -0.252,-0.295 l -0.511,0.156 0.593,1.834 0.51,-0.162 C -3.866,0.377 -3.856,0.252 -3.79,0.162 -3.723,0.072 -3.525,-0.02 -3.2,-0.125 l 2.304,-0.734 0.016,0.058 c 0.081,0.242 0.081,0.461 0.003,0.66 -0.078,0.202 -0.247,0.422 -0.52,0.664 l 0.27,0.301 z"
       style="fill:#016965;fill-opacity:1;fill-rule:nonzero;stroke:none"
       transform="matrix(1.3333333,0,0,-1.3333333,318.51307,447.65653)"
       clip-path="url(#clipPath17)" />
    <path
       id="path18"
       d="m 0,0 c -0.019,0.006 -0.043,0.021 -0.07,0.041 -0.366,0.211 -0.544,0.461 -0.535,0.736 l -0.529,0.096 -0.303,-1.582 0.513,-0.1 c 0.036,0.163 0.08,0.264 0.136,0.321 0.059,0.049 0.146,0.066 0.253,0.043 0.014,0 0.033,-0.006 0.056,-0.016 0.018,-0.008 0.038,-0.014 0.069,-0.021 l 0.553,-0.27 -0.224,-1.166 -0.625,-0.086 c -0.029,-0.008 -0.057,-0.008 -0.087,-0.008 -0.03,0.008 -0.066,0.008 -0.104,0.016 -0.085,0.012 -0.146,0.051 -0.172,0.113 -0.029,0.063 -0.03,0.164 -0.001,0.299 l 0.005,0.045 -0.513,0.096 -0.355,-1.848 0.529,-0.096 c 0.071,0.213 0.289,0.35 0.648,0.401 l 0.028,0.006 3.352,0.468 0.169,0.869 z m 0.483,-1.826 0.14,0.771 1.149,-0.638 z"
       style="fill:#016965;fill-opacity:1;fill-rule:nonzero;stroke:none"
       transform="matrix(1.3333333,0,0,-1.3333333,313.2956,451.50027)"
       clip-path="url(#clipPath19)" />
    <path
       id="path20"
       d="m 0,0 -0.142,-3.188 -1.348,-0.38 -0.145,0.38 c 0.34,0.139 0.58,0.284 0.72,0.44 0.144,0.166 0.227,0.369 0.232,0.619 l 0.002,0.063 -2.411,0.107 c -0.344,0.016 -0.56,-0.008 -0.658,-0.066 -0.089,-0.063 -0.144,-0.176 -0.159,-0.36 l -0.534,0.03 0.09,1.918 0.532,-0.02 c -0.003,-0.182 0.04,-0.305 0.13,-0.369 0.084,-0.07 0.3,-0.113 0.64,-0.127 L -0.638,-1.062 -0.63,-1 c 0.015,0.25 -0.051,0.463 -0.171,0.637 -0.13,0.174 -0.356,0.336 -0.678,0.506 L -1.3,0.502 Z"
       style="fill:#016965;fill-opacity:1;fill-rule:nonzero;stroke:none"
       transform="matrix(1.3333333,0,0,-1.3333333,316.56253,456.4664)"
       clip-path="url(#clipPath21)" />
    <path
       id="path22"
       d="m 0,0 0.39,-3.176 -1.233,-0.67 -0.255,0.326 c 0.307,0.243 0.528,0.495 0.662,0.758 0.133,0.264 0.185,0.543 0.15,0.83 -0.025,0.166 -0.072,0.276 -0.143,0.328 -0.075,0.049 -0.225,0.065 -0.459,0.034 l -0.616,-0.071 0.025,-0.187 c 0.023,-0.195 0.084,-0.326 0.174,-0.379 0.098,-0.061 0.286,-0.08 0.56,-0.061 l 0.052,-0.406 -1.949,-0.23 -0.047,0.4 c 0.252,0.061 0.428,0.139 0.533,0.234 0.104,0.092 0.142,0.223 0.125,0.372 L -2.052,-1.707 -3.058,-1.83 C -3.29,-1.855 -3.432,-1.906 -3.49,-1.977 -3.553,-2.043 -3.571,-2.16 -3.553,-2.332 c 0.039,-0.293 0.179,-0.564 0.425,-0.818 0.242,-0.258 0.56,-0.467 0.957,-0.623 l -0.182,-0.401 -1.546,0.404 -0.401,3.256 0.533,0.063 c 0.025,-0.176 0.088,-0.283 0.18,-0.336 0.097,-0.049 0.318,-0.051 0.67,-0.01 l 1.647,0.199 c 0.353,0.041 0.56,0.094 0.646,0.166 0.081,0.073 0.111,0.196 0.096,0.368 z"
       style="fill:#016965;fill-opacity:1;fill-rule:nonzero;stroke:none"
       transform="matrix(1.3333333,0,0,-1.3333333,316.45573,461.34147)"
       clip-path="url(#clipPath23)" />
    <path
       id="path24"
       d="m 0,0 0.199,-0.014 0.131,-0.341 -1.243,-0.86 -0.338,0.35 c 0.297,0.31 0.494,0.588 0.592,0.826 0.095,0.234 0.099,0.467 0.011,0.689 C -0.76,0.93 -0.973,1.094 -1.3,1.145 -1.629,1.191 -2.042,1.121 -2.544,0.924 -3.034,0.74 -3.375,0.521 -3.579,0.275 c -0.2,-0.246 -0.247,-0.507 -0.135,-0.789 0.086,-0.224 0.219,-0.381 0.4,-0.459 0.173,-0.089 0.37,-0.091 0.579,-0.004 0.147,0.057 0.242,0.131 0.278,0.223 0.042,0.094 0.028,0.221 -0.024,0.383 l 0.471,0.182 0.648,-1.668 -0.468,-0.182 c -0.101,0.154 -0.201,0.236 -0.303,0.262 -0.096,0.025 -0.255,-0.004 -0.471,-0.09 l -1.074,-0.412 -0.212,0.531 0.277,0.273 c -0.196,0.11 -0.352,0.245 -0.48,0.387 -0.124,0.147 -0.228,0.322 -0.312,0.533 -0.195,0.496 -0.151,0.971 0.122,1.422 0.281,0.445 0.742,0.793 1.395,1.051 0.608,0.23 1.171,0.25 1.694,0.055 C -0.672,1.777 -0.308,1.41 -0.095,0.881 -0.049,0.746 -0.012,0.605 0.006,0.469 0.02,0.322 0.02,0.166 0,0"
       style="fill:#016965;fill-opacity:1;fill-rule:nonzero;stroke:none"
       transform="matrix(1.3333333,0,0,-1.3333333,318.49867,471.84667)"
       clip-path="url(#clipPath25)" />
    <path
       id="path26"
       d="M 0,0 C 0.083,-0.166 0.103,-0.295 0.056,-0.391 0.004,-0.494 -0.171,-0.625 -0.472,-0.793 L -1.939,-1.58 c -0.3,-0.162 -0.505,-0.238 -0.621,-0.227 -0.107,0.012 -0.207,0.1 -0.306,0.26 l -0.467,-0.256 0.937,-1.699 0.471,0.25 c -0.088,0.166 -0.102,0.297 -0.054,0.398 0.049,0.102 0.225,0.231 0.528,0.389 l 0.48,0.26 0.185,-0.338 -1.052,-1.971 0.602,-1.09 0.459,0.25 c -0.059,0.129 -0.079,0.25 -0.076,0.368 0,0.109 0.04,0.236 0.113,0.384 l 0.573,1.2 c 0.234,-0.221 0.466,-0.35 0.702,-0.391 0.234,-0.033 0.481,0.014 0.741,0.152 0.348,0.192 0.542,0.444 0.58,0.774 0.046,0.316 -0.057,0.713 -0.316,1.183 l -1.071,1.94 z m 0.239,-1.549 c 0.199,0.106 0.341,0.151 0.429,0.133 0.09,-0.025 0.177,-0.117 0.265,-0.277 C 1.066,-1.92 1.107,-2.133 1.082,-2.322 1.049,-2.508 0.942,-2.646 0.761,-2.748 0.56,-2.857 0.37,-2.857 0.18,-2.758 c -0.183,0.108 -0.369,0.322 -0.54,0.639 -0.03,0.051 -0.054,0.088 -0.066,0.115 -0.012,0.031 -0.026,0.055 -0.036,0.082 z"
       style="fill:#016965;fill-opacity:1;fill-rule:nonzero;stroke:none"
       transform="matrix(1.3333333,0,0,-1.3333333,318.71747,473.66693)"
       clip-path="url(#clipPath27)" />
    <path
       id="path28"
       d="M 0,0 1.158,-1.586 0.729,-1.902 C 0.611,-1.752 0.496,-1.68 0.383,-1.68 0.27,-1.676 0.073,-1.779 -0.199,-1.977 l -1.355,-0.964 c -0.274,-0.196 -0.432,-0.35 -0.467,-0.457 -0.035,-0.106 -0.003,-0.239 0.105,-0.397 L -2.35,-4.1 l -1.164,1.588 0.435,0.311 c 0.119,-0.151 0.232,-0.221 0.345,-0.221 0.113,-0.002 0.312,0.102 0.585,0.291 l 1.352,0.973 c 0.276,0.199 0.431,0.347 0.466,0.455 0.036,0.105 0.006,0.236 -0.103,0.394 z"
       style="fill:#016965;fill-opacity:1;fill-rule:nonzero;stroke:none"
       transform="matrix(1.3333333,0,0,-1.3333333,322.07947,478.24507)"
       clip-path="url(#clipPath29)" />
    <path
       id="path30"
       d="M 0,0 C 0.106,-0.139 0.145,-0.252 0.116,-0.352 0.081,-0.457 -0.07,-0.617 -0.347,-0.838 L -1.64,-1.875 c -0.278,-0.217 -0.469,-0.328 -0.572,-0.336 -0.107,-0.012 -0.219,0.051 -0.331,0.186 l -0.421,-0.332 1.198,-1.479 c 0.463,-0.557 0.952,-0.873 1.489,-0.937 0.531,-0.069 1.068,0.115 1.611,0.554 0.546,0.438 0.843,0.916 0.89,1.448 0.046,0.519 -0.157,1.068 -0.612,1.63 L 0.416,0.328 Z m 0.488,-1.465 c 0.195,0.153 0.327,0.223 0.407,0.219 C 0.978,-1.254 1.071,-1.318 1.179,-1.449 1.411,-1.74 1.485,-2.055 1.398,-2.4 1.307,-2.744 1.064,-3.08 0.664,-3.398 0.273,-3.715 -0.108,-3.877 -0.471,-3.891 c -0.361,-0.011 -0.656,0.127 -0.893,0.414 -0.104,0.131 -0.155,0.233 -0.142,0.315 0.011,0.078 0.11,0.195 0.295,0.342 z"
       style="fill:#016965;fill-opacity:1;fill-rule:nonzero;stroke:none"
       transform="matrix(1.3333333,0,0,-1.3333333,323.42187,481.11493)"
       clip-path="url(#clipPath31)" />
    <path
       id="path32"
       d="M 0,0 0.212,0.168 0.46,-0.018 -0.099,-1.58 -0.512,-1.447 c 0.106,0.377 0.126,0.717 0.072,1.025 -0.06,0.299 -0.179,0.527 -0.38,0.682 -0.264,0.193 -0.562,0.228 -0.893,0.105 -0.335,-0.119 -0.663,-0.386 -0.968,-0.791 -0.316,-0.406 -0.477,-0.783 -0.499,-1.14 -0.016,-0.35 0.115,-0.637 0.393,-0.844 0.187,-0.147 0.433,-0.223 0.73,-0.223 0.295,-0.01 0.592,0.055 0.891,0.195 l 0.244,-0.468 c -0.444,-0.229 -0.857,-0.348 -1.255,-0.33 -0.388,0.019 -0.761,0.152 -1.103,0.416 -0.496,0.373 -0.77,0.84 -0.816,1.392 -0.047,0.555 0.137,1.108 0.558,1.653 0.399,0.515 0.871,0.824 1.429,0.927 C -1.548,1.26 -1.043,1.133 -0.578,0.785 -0.456,0.691 -0.345,0.58 -0.25,0.453 -0.158,0.326 -0.076,0.172 0,0"
       style="fill:#016965;fill-opacity:1;fill-rule:nonzero;stroke:none"
       transform="matrix(1.3333333,0,0,-1.3333333,332.0508,488.6956)"
       clip-path="url(#clipPath33)" />
    <path
       id="path34"
       d="m 0,0 c -0.527,-0.209 -0.938,-0.615 -1.225,-1.219 -0.293,-0.605 -0.349,-1.179 -0.176,-1.715 0.172,-0.537 0.54,-0.937 1.107,-1.207 0.566,-0.263 1.114,-0.298 1.647,-0.086 0.533,0.207 0.94,0.614 1.231,1.219 0.289,0.606 0.351,1.176 0.174,1.713 -0.172,0.539 -0.542,0.94 -1.113,1.203 C 1.079,0.178 0.53,0.205 0,0 M 1.9,-1.301 C 1.933,-1.646 1.834,-2.059 1.604,-2.547 1.373,-3.029 1.109,-3.367 0.82,-3.563 0.53,-3.75 0.235,-3.781 -0.053,-3.646 c -0.298,0.136 -0.458,0.378 -0.491,0.722 -0.031,0.344 0.069,0.758 0.299,1.246 0.235,0.487 0.498,0.824 0.786,1.018 0.289,0.191 0.585,0.219 0.878,0.086 0.286,-0.139 0.449,-0.379 0.481,-0.727"
       style="fill:#016965;fill-opacity:1;fill-rule:nonzero;stroke:none"
       transform="matrix(1.3333333,0,0,-1.3333333,333.57813,490.094)"
       clip-path="url(#clipPath35)" />
    <path
       id="path36"
       d="M 0,0 C 0.174,-0.064 0.284,-0.148 0.317,-0.25 0.352,-0.352 0.321,-0.568 0.222,-0.895 L -0.257,-2.477 C -0.356,-2.803 -0.448,-3 -0.537,-3.063 c -0.084,-0.064 -0.221,-0.083 -0.4,-0.035 l -0.155,-0.509 1.88,-0.557 0.152,0.51 c -0.174,0.054 -0.284,0.138 -0.32,0.242 -0.033,0.107 0,0.324 0.096,0.644 l 0.159,0.518 0.371,-0.111 0.653,-2.135 1.198,-0.35 0.153,0.491 C 3.125,-4.297 3.014,-4.232 2.937,-4.152 2.858,-4.068 2.792,-3.947 2.74,-3.789 l -0.446,1.252 c 0.329,0.004 0.583,0.072 0.783,0.209 0.193,0.137 0.333,0.342 0.416,0.625 0.112,0.373 0.069,0.693 -0.13,0.951 -0.2,0.262 -0.56,0.467 -1.069,0.623 L 0.148,0.5 Z m 1.271,-0.941 c 0.062,0.216 0.138,0.349 0.213,0.392 0.078,0.047 0.206,0.043 0.379,-0.01 0.254,-0.074 0.444,-0.187 0.55,-0.341 0.109,-0.159 0.14,-0.33 0.079,-0.532 -0.065,-0.214 -0.198,-0.347 -0.403,-0.406 -0.21,-0.058 -0.485,-0.031 -0.84,0.076 -0.06,0.02 -0.101,0.026 -0.133,0.037 -0.029,0.01 -0.053,0.02 -0.075,0.028 z"
       style="fill:#016965;fill-opacity:1;fill-rule:nonzero;stroke:none"
       transform="matrix(1.3333333,0,0,-1.3333333,338.2136,492.20867)"
       clip-path="url(#clipPath37)" />
    <path
       id="path38"
       d="M 0,0 C 0.168,-0.023 0.281,-0.088 0.333,-0.182 0.378,-0.273 0.384,-0.496 0.336,-0.85 L 0.128,-2.482 c -0.045,-0.35 -0.101,-0.553 -0.174,-0.637 -0.073,-0.076 -0.192,-0.11 -0.364,-0.09 l -0.066,-0.525 1.886,-0.235 0.064,0.522 c -0.173,0.031 -0.282,0.088 -0.33,0.187 -0.047,0.098 -0.053,0.313 -0.01,0.653 L 1.192,-2.17 1.86,-2.254 c 0.476,-0.059 0.85,-0.004 1.116,0.174 0.261,0.17 0.415,0.465 0.475,0.871 0.052,0.422 -0.032,0.756 -0.256,1.008 C 2.967,0.053 2.61,0.201 2.117,0.264 L 0.066,0.52 Z m 1.377,-0.723 c 0.026,0.225 0.075,0.366 0.132,0.426 0.056,0.065 0.157,0.086 0.305,0.067 0.223,-0.028 0.392,-0.116 0.498,-0.26 0.109,-0.139 0.154,-0.324 0.12,-0.547 C 2.403,-1.281 2.304,-1.461 2.14,-1.566 1.975,-1.674 1.741,-1.707 1.446,-1.672 c -0.043,0.01 -0.082,0.01 -0.111,0.018 -0.026,0.002 -0.048,0.006 -0.076,0.013 z"
       style="fill:#016965;fill-opacity:1;fill-rule:nonzero;stroke:none"
       transform="matrix(1.3333333,0,0,-1.3333333,343.86853,493.818)"
       clip-path="url(#clipPath39)" />
    <path
       id="path40"
       d="m 0,0 c -0.374,-0.432 -0.546,-0.973 -0.521,-1.643 0.023,-0.67 0.238,-1.205 0.645,-1.603 0.407,-0.395 0.913,-0.582 1.551,-0.559 0.621,0.02 1.119,0.246 1.494,0.672 0.376,0.426 0.551,0.973 0.528,1.645 C 3.673,-0.818 3.456,-0.283 3.049,0.113 2.646,0.512 2.125,0.697 1.501,0.678 0.875,0.646 0.373,0.428 0,0 M 2.289,-0.283 C 2.479,-0.578 2.591,-0.99 2.604,-1.527 2.629,-2.061 2.555,-2.479 2.383,-2.783 2.218,-3.09 1.972,-3.246 1.652,-3.256 1.328,-3.268 1.071,-3.129 0.877,-2.836 0.691,-2.549 0.584,-2.137 0.564,-1.602 0.545,-1.066 0.62,-0.641 0.788,-0.338 0.954,-0.035 1.2,0.123 1.522,0.139 1.846,0.146 2.097,0.008 2.289,-0.283"
       style="fill:#016965;fill-opacity:1;fill-rule:nonzero;stroke:none"
       transform="matrix(1.3333333,0,0,-1.3333333,349.40493,494.50027)"
       clip-path="url(#clipPath41)" />
    <path
       id="path42"
       d="M 0,0 C 0.185,0.029 0.319,-0.002 0.393,-0.08 0.472,-0.156 0.542,-0.363 0.597,-0.699 L 0.869,-2.328 C 0.922,-2.668 0.931,-2.885 0.878,-2.979 0.832,-3.08 0.717,-3.146 0.532,-3.184 l 0.09,-0.519 1.929,0.31 -0.089,0.522 C 2.277,-2.896 2.15,-2.865 2.069,-2.789 1.989,-2.713 1.925,-2.502 1.873,-2.164 l -0.091,0.533 0.385,0.061 1.529,-1.639 1.235,0.205 -0.079,0.51 c -0.148,-0.01 -0.27,0.006 -0.376,0.051 -0.105,0.041 -0.218,0.115 -0.33,0.238 l -0.958,0.932 c 0.29,0.14 0.493,0.318 0.604,0.523 0.113,0.211 0.147,0.453 0.104,0.746 C 3.829,0.379 3.646,0.643 3.354,0.795 3.059,0.941 2.649,0.969 2.114,0.881 L -0.089,0.523 Z M 1.554,-0.285 C 1.521,-0.064 1.526,0.086 1.573,0.164 1.629,0.232 1.742,0.291 1.925,0.316 2.186,0.357 2.401,0.338 2.566,0.25 2.738,0.152 2.838,0.008 2.873,-0.195 2.908,-0.416 2.849,-0.6 2.691,-0.738 2.525,-0.877 2.271,-0.975 1.905,-1.033 1.844,-1.043 1.796,-1.053 1.772,-1.057 1.742,-1.059 1.71,-1.062 1.687,-1.066 Z"
       style="fill:#016965;fill-opacity:1;fill-rule:nonzero;stroke:none"
       transform="matrix(1.3333333,0,0,-1.3333333,354.26427,494.26333)"
       clip-path="url(#clipPath43)" />
    <path
       id="path44"
       d="m 0,0 v -0.08 c 0.009,-0.418 -0.108,-0.703 -0.35,-0.842 l 0.199,-0.49 1.515,0.58 -0.187,0.48 C 1.024,-0.4 0.909,-0.42 0.834,-0.404 0.757,-0.379 0.7,-0.316 0.659,-0.215 0.653,-0.203 0.647,-0.18 0.643,-0.162 0.636,-0.139 0.633,-0.119 0.629,-0.094 L 0.569,0.52 1.687,0.945 2.091,0.465 C 2.108,0.447 2.122,0.42 2.142,0.396 2.16,0.363 2.17,0.336 2.186,0.301 2.216,0.217 2.211,0.15 2.173,0.094 2.136,0.043 2.052,-0.014 1.928,-0.062 L 1.88,-0.08 2.07,-0.564 3.836,0.111 3.645,0.609 C 3.424,0.555 3.191,0.666 2.959,0.943 L 2.938,0.963 0.762,3.535 -0.068,3.217 Z M 1.307,1.369 0.572,1.086 0.511,2.387 Z"
       style="fill:#016965;fill-opacity:1;fill-rule:nonzero;stroke:none"
       transform="matrix(1.3333333,0,0,-1.3333333,361.58853,496.1956)"
       clip-path="url(#clipPath45)" />
    <path
       id="path46"
       d="M 0,0 2.848,1.482 3.864,0.531 3.607,0.211 C 3.319,0.439 3.069,0.564 2.854,0.604 2.646,0.645 2.423,0.609 2.2,0.49 L 2.144,0.463 3.278,-1.652 C 3.434,-1.947 3.564,-2.125 3.667,-2.176 3.762,-2.227 3.894,-2.215 4.06,-2.133 L 4.309,-2.604 2.588,-3.498 2.342,-3.033 c 0.158,0.088 0.244,0.187 0.257,0.297 0.014,0.109 -0.057,0.312 -0.22,0.607 L 1.252,-0.006 1.195,-0.033 C 0.968,-0.156 0.814,-0.307 0.731,-0.504 0.643,-0.701 0.608,-0.982 0.629,-1.344 L 0.227,-1.371 Z"
       style="fill:#016965;fill-opacity:1;fill-rule:nonzero;stroke:none"
       transform="matrix(1.3333333,0,0,-1.3333333,364.31507,490.95347)"
       clip-path="url(#clipPath47)" />
    <path
       id="path48"
       d="M 0,0 1.633,1.115 1.937,0.68 C 1.781,0.568 1.706,0.457 1.704,0.346 1.704,0.232 1.801,0.037 1.986,-0.24 L 2.938,-1.6 C 3.129,-1.875 3.275,-2.035 3.389,-2.074 3.49,-2.109 3.627,-2.082 3.785,-1.98 L 4.089,-2.418 2.453,-3.531 2.155,-3.096 c 0.153,0.114 0.225,0.227 0.234,0.336 0,0.117 -0.093,0.313 -0.29,0.59 l -0.945,1.359 c -0.195,0.276 -0.343,0.436 -0.45,0.475 -0.107,0.035 -0.241,0.002 -0.401,-0.098 z"
       style="fill:#016965;fill-opacity:1;fill-rule:nonzero;stroke:none"
       transform="matrix(1.3333333,0,0,-1.3333333,368.74733,488.5732)"
       clip-path="url(#clipPath49)" />
    <path
       id="path50"
       d="M 0,0 C -0.062,-0.557 0.111,-1.102 0.512,-1.641 0.916,-2.18 1.398,-2.498 1.961,-2.6 c 0.562,-0.103 1.09,0.034 1.6,0.405 0.5,0.373 0.78,0.84 0.848,1.402 C 4.471,-0.236 4.3,0.314 3.893,0.85 3.491,1.385 3.007,1.711 2.445,1.805 1.887,1.904 1.353,1.771 0.852,1.402 0.345,1.027 0.065,0.561 0,0 M 2.047,1.055 C 2.373,0.924 2.697,0.639 3.023,0.211 3.345,-0.219 3.522,-0.605 3.559,-0.949 3.595,-1.297 3.48,-1.561 3.23,-1.756 2.968,-1.945 2.676,-1.971 2.354,-1.838 2.029,-1.707 1.71,-1.43 1.382,-0.994 1.059,-0.564 0.879,-0.182 0.841,0.166 0.806,0.512 0.918,0.777 1.176,0.973 1.433,1.162 1.722,1.189 2.047,1.055"
       style="fill:#016965;fill-opacity:1;fill-rule:nonzero;stroke:none"
       transform="matrix(1.3333333,0,0,-1.3333333,372.0456,487.0628)"
       clip-path="url(#clipPath51)" />
    <path
       id="path52"
       d="m 0,0 c 0.207,-0.52 0.619,-0.93 1.232,-1.213 0.61,-0.285 1.185,-0.344 1.727,-0.17 0.545,0.17 0.955,0.541 1.221,1.1 C 4.444,0.279 4.476,0.822 4.26,1.342 4.055,1.873 3.645,2.277 3.035,2.566 2.417,2.854 1.84,2.91 1.3,2.736 0.758,2.563 0.354,2.189 0.087,1.629 -0.183,1.072 -0.212,0.521 0,0 M 1.301,1.879 C 1.658,1.918 2.075,1.822 2.566,1.588 3.056,1.361 3.398,1.105 3.59,0.822 3.791,0.527 3.817,0.242 3.678,-0.045 3.535,-0.336 3.297,-0.498 2.951,-0.533 2.603,-0.564 2.18,-0.471 1.693,-0.24 1.201,-0.012 0.856,0.248 0.663,0.537 0.464,0.826 0.44,1.113 0.577,1.402 0.712,1.687 0.956,1.85 1.301,1.879"
       style="fill:#016965;fill-opacity:1;fill-rule:nonzero;stroke:none"
       transform="matrix(1.3333333,0,0,-1.3333333,380.81387,477.61747)"
       clip-path="url(#clipPath53)" />
    <path
       id="path54"
       d="M 0,0 1.065,3.064 2.427,3.193 2.494,2.805 C 2.143,2.717 1.854,2.582 1.626,2.398 1.401,2.217 1.24,1.988 1.142,1.707 1.082,1.525 1.073,1.389 1.11,1.307 1.154,1.219 1.284,1.139 1.504,1.066 L 2.071,0.871 2.131,1.037 C 2.2,1.25 2.208,1.412 2.15,1.516 2.089,1.621 1.93,1.725 1.684,1.822 L 1.803,2.164 3.71,1.516 3.586,1.17 C 3.339,1.223 3.148,1.223 3.002,1.174 2.861,1.125 2.759,1.014 2.701,0.846 L 2.64,0.676 3.324,0.443 C 3.647,0.334 3.863,0.295 3.969,0.326 4.076,0.357 4.166,0.463 4.233,0.639 L 4.741,0.463 4.092,-1.4 3.586,-1.229 C 3.637,-1.045 3.637,-0.914 3.571,-0.82 3.51,-0.73 3.314,-0.631 2.99,-0.516 L 1.407,0.018 C 1.087,0.131 0.878,0.176 0.773,0.137 0.67,0.102 0.574,0.002 0.499,-0.168 Z"
       style="fill:#016965;fill-opacity:1;fill-rule:nonzero;stroke:none"
       transform="matrix(1.3333333,0,0,-1.3333333,382.2656,472.792)"
       clip-path="url(#clipPath55)" />
    <path
       id="path56"
       d="m 0,0 -0.257,0.107 0.04,0.299 1.65,0.291 0.085,-0.424 C 1.136,0.182 0.831,0.031 0.587,-0.17 0.345,-0.369 0.21,-0.592 0.179,-0.834 c -0.044,-0.318 0.072,-0.592 0.345,-0.82 0.273,-0.227 0.663,-0.377 1.17,-0.444 0.517,-0.068 0.929,-0.021 1.252,0.131 0.32,0.162 0.5,0.41 0.546,0.758 0.036,0.236 -0.021,0.479 -0.167,0.74 -0.14,0.256 -0.345,0.483 -0.617,0.67 L 3.002,0.639 C 3.428,0.373 3.73,0.068 3.908,-0.275 4.094,-0.623 4.155,-1.008 4.094,-1.436 4.017,-2.043 3.737,-2.504 3.273,-2.822 2.805,-3.133 2.236,-3.248 1.549,-3.152 c -0.65,0.084 -1.161,0.341 -1.526,0.767 -0.365,0.432 -0.508,0.932 -0.432,1.504 0.017,0.152 0.063,0.297 0.131,0.44 C -0.211,-0.297 -0.121,-0.145 0,0"
       style="fill:#016965;fill-opacity:1;fill-rule:nonzero;stroke:none"
       transform="matrix(1.3333333,0,0,-1.3333333,385.0976,462.51067)"
       clip-path="url(#clipPath57)" />
    <path
       id="path58"
       d="M 0,0 -0.081,1.92 0.433,1.937 C 0.446,1.762 0.499,1.639 0.599,1.578 0.694,1.523 0.917,1.498 1.258,1.51 L 1.692,1.527 1.635,2.994 1.196,2.977 C 0.849,2.961 0.63,2.924 0.544,2.852 0.45,2.785 0.408,2.664 0.408,2.486 L -0.104,2.459 -0.183,4.385 0.351,4.406 C 0.365,4.225 0.416,4.105 0.507,4.049 0.599,3.99 0.819,3.963 1.171,3.982 L 2.832,4.051 C 3.179,4.064 3.395,4.105 3.485,4.17 3.567,4.236 3.614,4.357 3.61,4.541 L 4.141,4.559 4.223,2.639 3.712,2.621 C 3.699,2.797 3.649,2.914 3.552,2.977 3.456,3.039 3.233,3.057 2.891,3.043 L 2.164,3.016 2.227,1.553 2.953,1.582 C 3.301,1.596 3.518,1.637 3.607,1.703 3.692,1.768 3.737,1.889 3.73,2.07 L 4.247,2.092 4.33,0.174 3.796,0.152 C 3.78,0.328 3.727,0.447 3.636,0.508 3.544,0.568 3.321,0.586 2.981,0.576 L 1.316,0.508 C 0.972,0.494 0.757,0.455 0.665,0.387 0.576,0.318 0.532,0.193 0.532,0.02 Z"
       style="fill:#016965;fill-opacity:1;fill-rule:nonzero;stroke:none"
       transform="matrix(1.3333333,0,0,-1.3333333,384.78773,461.4144)"
       clip-path="url(#clipPath59)" />
    <path
       id="path60"
       d="m 0,0 c 0,0 -0.089,0.404 -0.192,1.053 -0.106,0.65 -0.162,0.879 -0.162,0.879 L 0.172,2.023 C 0.218,1.84 0.288,1.727 0.39,1.676 0.493,1.629 0.713,1.637 1.045,1.695 L 2.691,1.988 C 3.019,2.045 3.226,2.115 3.306,2.197 3.387,2.279 3.411,2.412 3.389,2.598 L 3.914,2.689 4.265,0.762 3.737,0.67 C 3.698,0.852 3.623,0.963 3.522,1.014 3.419,1.062 3.199,1.057 2.866,0.996 L 1.226,0.705 C 0.887,0.645 0.681,0.572 0.603,0.492 0.523,0.414 0.499,0.279 0.523,0.094 Z"
       style="fill:#016965;fill-opacity:1;fill-rule:nonzero;stroke:none"
       transform="matrix(1.3333333,0,0,-1.3333333,384.526,455.2816)"
       clip-path="url(#clipPath61)" />
    <path
       id="path62"
       d="M 0,0 -0.446,1.58 1.567,3.541 0.451,3.227 C 0.124,3.133 -0.079,3.045 -0.148,2.969 -0.221,2.885 -0.236,2.758 -0.195,2.58 L -0.696,2.441 -1.087,3.818 -0.573,3.967 C -0.522,3.791 -0.441,3.689 -0.333,3.654 -0.23,3.619 -0.01,3.648 0.318,3.744 L 3.205,4.549 3.4,3.871 0.698,1.215 2.632,1.766 C 2.961,1.852 3.164,1.941 3.236,2.029 3.303,2.105 3.317,2.238 3.277,2.414 L 3.774,2.559 4.175,1.164 3.659,1.025 C 3.606,1.193 3.522,1.295 3.414,1.332 3.309,1.367 3.096,1.338 2.761,1.246 L 1.164,0.799 C 0.832,0.705 0.631,0.619 0.558,0.533 0.491,0.447 0.474,0.32 0.521,0.143 Z"
       style="fill:#016965;fill-opacity:1;fill-rule:nonzero;stroke:none"
       transform="matrix(1.3333333,0,0,-1.3333333,384.0312,452.41693)"
       clip-path="url(#clipPath63)" />
    <path
       id="path64"
       d="m 0,0 c 0.019,0.002 0.048,0.004 0.08,0.004 0.429,0.035 0.714,-0.07 0.864,-0.293 L 1.433,-0.072 0.765,1.396 0.286,1.182 C 0.352,1.033 0.378,0.92 0.358,0.846 0.342,0.768 0.283,0.711 0.184,0.664 0.167,0.658 0.149,0.65 0.124,0.645 0.105,0.639 0.08,0.633 0.063,0.625 l -0.618,-0.096 -0.489,1.086 0.462,0.428 c 0.019,0.014 0.043,0.035 0.068,0.049 0.028,0.017 0.058,0.035 0.092,0.049 0.085,0.039 0.15,0.041 0.213,0.002 0.053,-0.034 0.11,-0.118 0.171,-0.237 L -0.022,1.865 0.458,2.076 -0.322,3.789 -0.814,3.57 C -0.748,3.354 -0.843,3.119 -1.108,2.867 L -1.129,2.855 -3.606,0.562 -3.245,-0.24 Z M -1.452,1.223 -1.127,0.51 -2.436,0.373 Z"
       style="fill:#016965;fill-opacity:1;fill-rule:nonzero;stroke:none"
       transform="matrix(1.3333333,0,0,-1.3333333,386.25267,445.66693)"
       clip-path="url(#clipPath65)" />
    <path
       id="path66"
       d="M 0,0 1.067,1.258 3.837,0.713 2.945,1.449 C 2.683,1.664 2.497,1.785 2.392,1.797 2.279,1.807 2.162,1.748 2.043,1.619 l -0.397,0.33 0.927,1.1 0.411,-0.34 C 2.87,2.566 2.831,2.441 2.86,2.336 2.889,2.23 3.037,2.07 3.303,1.85 L 5.595,-0.061 5.141,-0.6 1.406,0.121 2.946,-1.16 c 0.258,-0.215 0.444,-0.332 0.557,-0.344 0.107,-0.008 0.229,0.055 0.349,0.186 l 0.404,-0.33 -0.94,-1.106 -0.412,0.34 c 0.113,0.143 0.154,0.268 0.124,0.371 -0.027,0.107 -0.177,0.268 -0.44,0.49 L 1.312,-0.5 C 1.05,-0.281 0.865,-0.164 0.75,-0.154 0.643,-0.143 0.523,-0.207 0.405,-0.34 Z"
       style="fill:#016965;fill-opacity:1;fill-rule:nonzero;stroke:none"
       transform="matrix(1.3333333,0,0,-1.3333333,375.12373,483.64613)"
       clip-path="url(#clipPath67)" />
    <path
       id="path68"
       d="M 0,0 C 0,12.914 10.505,23.422 23.417,23.422 36.33,23.422 46.835,12.914 46.835,0 46.835,-12.912 36.33,-23.416 23.417,-23.416 10.505,-23.416 0,-12.912 0,0 m -0.5,0 c 0,-13.188 10.729,-23.916 23.917,-23.916 13.189,0 23.92,10.728 23.92,23.916 0,13.191 -10.731,23.922 -23.92,23.922 C 10.229,23.922 -0.5,13.191 -0.5,0"
       style="fill:#016965;fill-opacity:1;fill-rule:nonzero;stroke:none"
       transform="matrix(1.3333333,0,0,-1.3333333,319.36973,459.5992)"
       clip-path="url(#clipPath69)" />
    <path
       id="path70"
       d="m 262.929,519.257 c -7.373,-2.035 -12.959,-11.564 -12.959,-23.02 v 0 c 0,-1.439 0.09,-2.851 0.259,-4.222 v 0 c 1.263,-0.406 2.595,-0.745 3.986,-1.004 v 0 c -0.294,1.843 -0.454,3.781 -0.454,5.783 v 0 c 0,9.488 3.539,17.569 8.487,20.613 v 0 c -3.899,-4.268 -6.428,-11.105 -6.428,-18.812 v 0 c 0,-2.797 0.335,-5.477 0.946,-7.961 v 0 c 1.85,-0.207 3.78,-0.28 5.761,-0.203 v 0 c 10.402,0.412 19.088,4.85 22.135,10.679 v 0 c -1.851,10.317 -10.866,18.147 -21.714,18.147 v 0 z"
       transform="matrix(1.3333333,0,0,-1.3333333,0,1122.52)"
       style="fill:url(#radialGradient70);stroke:none" />
    <path
       id="path72"
       d="m 251.164,487.323 c 1.331,-0.486 2.747,-0.892 4.229,-1.217 v 0 c -0.349,1.061 -0.647,2.175 -0.887,3.335 v 0 c -1.451,0.32 -2.817,0.722 -4.079,1.197 v 0 c 0.191,-1.141 0.437,-2.249 0.737,-3.315"
       transform="matrix(1.3333333,0,0,-1.3333333,0,1122.52)"
       style="fill:url(#radialGradient72);stroke:none" />
    <path
       id="path74"
       d="m 262.948,475.13 c 0.513,0 1.021,0.02 1.524,0.055 v 0 c -3.325,0.951 -6.218,4.078 -8.156,8.497 v 0 c -1.458,0.189 -2.861,0.45 -4.19,0.776 v 0 c 1.089,-2.75 2.547,-5.147 4.274,-7.033 v 0 c -2.38,1.465 -4.431,4.094 -5.92,7.484 v 0 c -3.279,0.987 -6.038,2.393 -8.02,4.078 v 0 c 3.258,-8.121 11.202,-13.857 20.488,-13.857"
       transform="matrix(1.3333333,0,0,-1.3333333,0,1122.52)"
       style="fill:url(#radialGradient74);stroke:none" />
    <path
       id="path76"
       d="m 264.432,488.611 c -2.513,-0.1 -4.934,0.025 -7.202,0.341 v 0 c 0.363,-1.182 0.787,-2.314 1.275,-3.382 v 0 c 1.631,-0.213 3.323,-0.329 5.058,-0.329 v 0 c 7.959,0 15.011,2.334 19.41,5.932 v 0 c -3.143,-4.563 -11.47,-7.833 -21.259,-7.833 v 0 c -0.702,0 -1.4,0.018 -2.085,0.054 v 0 c 2.185,-3.77 5.168,-6.502 8.562,-7.635 v 0 c 9.611,2.342 16.753,10.976 16.816,21.293 v 0 c -3.037,-4.582 -11.047,-8.067 -20.575,-8.441"
       transform="matrix(1.3333333,0,0,-1.3333333,0,1122.52)"
       style="fill:url(#radialGradient76);stroke:none" />
    <path
       id="path78"
       d="m 240.883,497.192 c 0,-0.871 0.052,-1.728 0.15,-2.574 v 0 c 1.683,-2.638 4.586,-4.908 8.289,-6.553 v 0 c -0.324,1.081 -0.597,2.215 -0.815,3.391 v 0 c -2.345,1.131 -4.206,2.54 -5.395,4.151 v 0 c 1.473,-1.124 3.224,-2.098 5.187,-2.893 v 0 c -0.249,1.705 -0.383,3.488 -0.383,5.324 v 0 c 0,8.797 3.042,16.387 7.431,19.875 v 0 c -8.442,-3.098 -14.464,-11.207 -14.464,-20.721"
       transform="matrix(1.3333333,0,0,-1.3333333,0,1122.52)"
       style="fill:url(#radialGradient78);stroke:none" />
  </g>
</svg>
