<?xml version="1.0" encoding="UTF-8" standalone="no"?>
<!-- Created with Inkscape (http://www.inkscape.org/) -->

<svg
   version="1.1"
   id="svg1"
   width="98.094696"
   height="98.094666"
   viewBox="0 0 98.094692 98.094665"
   xmlns="http://www.w3.org/2000/svg"
   xmlns:svg="http://www.w3.org/2000/svg">
  <defs
     id="defs1">
    <clipPath
       clipPathUnits="userSpaceOnUse"
       id="clipPath4">
      <path
         d="M 0,595 H 842 V 0 H 0 Z"
         transform="translate(-414.12601,-306.53421)"
         id="path4" />
    </clipPath>
    <clipPath
       clipPathUnits="userSpaceOnUse"
       id="clipPath6">
      <path
         d="M 0,595 H 842 V 0 H 0 Z"
         transform="translate(-402.54491,-306.61331)"
         id="path6" />
    </clipPath>
    <clipPath
       clipPathUnits="userSpaceOnUse"
       id="clipPath8">
      <path
         d="M 0,595 H 842 V 0 H 0 Z"
         transform="translate(-374.49221,-312.89651)"
         id="path8" />
    </clipPath>
    <clipPath
       clipPathUnits="userSpaceOnUse"
       id="clipPath10">
      <path
         d="M 0,595 H 842 V 0 H 0 Z"
         transform="translate(-373.14841,-312.13571)"
         id="path10" />
    </clipPath>
    <clipPath
       clipPathUnits="userSpaceOnUse"
       id="clipPath12">
      <path
         d="M 0,595 H 842 V 0 H 0 Z"
         transform="translate(-377.36721,-312.32621)"
         id="path12" />
    </clipPath>
    <clipPath
       clipPathUnits="userSpaceOnUse"
       id="clipPath14">
      <path
         d="M 0,595 H 842 V 0 H 0 Z"
         transform="translate(-380.17771,-299.9639)"
         id="path14" />
    </clipPath>
    <clipPath
       clipPathUnits="userSpaceOnUse"
       id="clipPath16">
      <path
         d="M 0,595 H 842 V 0 H 0 Z"
         transform="translate(-381.52051,-300.72461)"
         id="path16" />
    </clipPath>
    <clipPath
       clipPathUnits="userSpaceOnUse"
       id="clipPath18">
      <path
         d="M 0,595 H 842 V 0 H 0 Z"
         transform="translate(-348.08011,-300.51561)"
         id="path18" />
    </clipPath>
    <clipPath
       clipPathUnits="userSpaceOnUse"
       id="clipPath20">
      <path
         d="M 0,595 H 842 V 0 H 0 Z"
         transform="translate(-349.64451,-301.75781)"
         id="path20" />
    </clipPath>
    <clipPath
       clipPathUnits="userSpaceOnUse"
       id="clipPath22">
      <path
         d="M 0,595 H 842 V 0 H 0 Z"
         transform="translate(-347.33981,-305.85941)"
         id="path22" />
    </clipPath>
    <clipPath
       clipPathUnits="userSpaceOnUse"
       id="clipPath24">
      <path
         d="M 0,595 H 842 V 0 H 0 Z"
         transform="translate(-349.22751,-307.09371)"
         id="path24" />
    </clipPath>
    <clipPath
       clipPathUnits="userSpaceOnUse"
       id="clipPath26">
      <path
         d="M 0,595 H 842 V 0 H 0 Z"
         transform="translate(-347.84181,-311.35551)"
         id="path26" />
    </clipPath>
    <clipPath
       clipPathUnits="userSpaceOnUse"
       id="clipPath28">
      <path
         d="M 0,595 H 842 V 0 H 0 Z"
         transform="translate(-348.31641,-312.86521)"
         id="path28" />
    </clipPath>
    <clipPath
       clipPathUnits="userSpaceOnUse"
       id="clipPath30">
      <path
         d="M 0,595 H 842 V 0 H 0 Z"
         transform="translate(-350.50781,-315.00881)"
         id="path30" />
    </clipPath>
    <clipPath
       clipPathUnits="userSpaceOnUse"
       id="clipPath32">
      <path
         d="M 0,595 H 842 V 0 H 0 Z"
         transform="translate(-350.33201,-319.71001)"
         id="path32" />
    </clipPath>
    <clipPath
       clipPathUnits="userSpaceOnUse"
       id="clipPath34">
      <path
         d="M 0,595 H 842 V 0 H 0 Z"
         transform="translate(-349.48051,-324.25001)"
         id="path34" />
    </clipPath>
    <clipPath
       clipPathUnits="userSpaceOnUse"
       id="clipPath36">
      <path
         d="M 0,595 H 842 V 0 H 0 Z"
         transform="translate(-355.00881,-323.73831)"
         id="path36" />
    </clipPath>
    <clipPath
       clipPathUnits="userSpaceOnUse"
       id="clipPath38">
      <path
         d="M 0,595 H 842 V 0 H 0 Z"
         transform="translate(-356.75781,-325.78711)"
         id="path38" />
    </clipPath>
    <clipPath
       clipPathUnits="userSpaceOnUse"
       id="clipPath40">
      <path
         d="M 0,595 H 842 V 0 H 0 Z"
         transform="translate(-357.93951,-326.99121)"
         id="path40" />
    </clipPath>
    <clipPath
       clipPathUnits="userSpaceOnUse"
       id="clipPath42">
      <path
         d="M 0,595 H 842 V 0 H 0 Z"
         transform="translate(-359.23051,-328.17581)"
         id="path42" />
    </clipPath>
    <clipPath
       clipPathUnits="userSpaceOnUse"
       id="clipPath44">
      <path
         d="M 0,595 H 842 V 0 H 0 Z"
         transform="translate(-360.14751,-332.34571)"
         id="path44" />
    </clipPath>
    <clipPath
       clipPathUnits="userSpaceOnUse"
       id="clipPath46">
      <path
         d="M 0,595 H 842 V 0 H 0 Z"
         transform="translate(-362.57521,-332.44531)"
         id="path46" />
    </clipPath>
    <clipPath
       clipPathUnits="userSpaceOnUse"
       id="clipPath48">
      <path
         d="M 0,595 H 842 V 0 H 0 Z"
         transform="translate(-365.65821,-332.24021)"
         id="path48" />
    </clipPath>
    <clipPath
       clipPathUnits="userSpaceOnUse"
       id="clipPath50">
      <path
         d="M 0,595 H 842 V 0 H 0 Z"
         transform="translate(-367.14651,-332.87601)"
         id="path50" />
    </clipPath>
    <clipPath
       clipPathUnits="userSpaceOnUse"
       id="clipPath52">
      <path
         d="M 0,595 H 842 V 0 H 0 Z"
         transform="translate(-369.36431,-333.64551)"
         id="path52" />
    </clipPath>
    <clipPath
       clipPathUnits="userSpaceOnUse"
       id="clipPath54">
      <path
         d="M 0,595 H 842 V 0 H 0 Z"
         transform="translate(-373.07231,-336.95611)"
         id="path54" />
    </clipPath>
    <clipPath
       clipPathUnits="userSpaceOnUse"
       id="clipPath56">
      <path
         d="M 0,595 H 842 V 0 H 0 Z"
         transform="translate(-375.77341,-334.80271)"
         id="path56" />
    </clipPath>
    <clipPath
       clipPathUnits="userSpaceOnUse"
       id="clipPath58">
      <path
         d="M 0,595 H 842 V 0 H 0 Z"
         transform="translate(-380.03521,-336.32421)"
         id="path58" />
    </clipPath>
    <clipPath
       clipPathUnits="userSpaceOnUse"
       id="clipPath60">
      <path
         d="M 0,595 H 842 V 0 H 0 Z"
         transform="translate(-384.59961,-335.76761)"
         id="path60" />
    </clipPath>
    <clipPath
       clipPathUnits="userSpaceOnUse"
       id="clipPath62">
      <path
         d="M 0,595 H 842 V 0 H 0 Z"
         transform="translate(-385.05661,-333.79491)"
         id="path62" />
    </clipPath>
    <clipPath
       clipPathUnits="userSpaceOnUse"
       id="clipPath64">
      <path
         d="M 0,595 H 842 V 0 H 0 Z"
         transform="translate(-385.99411,-333.53321)"
         id="path64" />
    </clipPath>
    <clipPath
       clipPathUnits="userSpaceOnUse"
       id="clipPath66">
      <path
         d="M 0,595 H 842 V 0 H 0 Z"
         transform="translate(-388.31051,-332.69041)"
         id="path66" />
    </clipPath>
    <clipPath
       clipPathUnits="userSpaceOnUse"
       id="clipPath68">
      <path
         d="M 0,595 H 842 V 0 H 0 Z"
         transform="translate(-393.20901,-332.16991)"
         id="path68" />
    </clipPath>
    <clipPath
       clipPathUnits="userSpaceOnUse"
       id="clipPath70">
      <path
         d="M 0,595 H 842 V 0 H 0 Z"
         transform="translate(-393.04101,-330.17381)"
         id="path70" />
    </clipPath>
    <clipPath
       clipPathUnits="userSpaceOnUse"
       id="clipPath72">
      <path
         d="M 0,595 H 842 V 0 H 0 Z"
         transform="translate(-398.67681,-328.46481)"
         id="path72" />
    </clipPath>
    <clipPath
       clipPathUnits="userSpaceOnUse"
       id="clipPath74">
      <path
         d="M 0,595 H 842 V 0 H 0 Z"
         transform="translate(-400.07231,-323.52051)"
         id="path74" />
    </clipPath>
    <clipPath
       clipPathUnits="userSpaceOnUse"
       id="clipPath76">
      <path
         d="M 0,595 H 842 V 0 H 0 Z"
         transform="translate(-401.01171,-322.21481)"
         id="path76" />
    </clipPath>
    <clipPath
       clipPathUnits="userSpaceOnUse"
       id="clipPath78">
      <path
         d="M 0,595 H 842 V 0 H 0 Z"
         transform="translate(-404.69041,-319.25591)"
         id="path78" />
    </clipPath>
    <clipPath
       clipPathUnits="userSpaceOnUse"
       id="clipPath80">
      <path
         d="M 0,595 H 842 V 0 H 0 Z"
         transform="translate(-403.45121,-317.68651)"
         id="path80" />
    </clipPath>
    <clipPath
       clipPathUnits="userSpaceOnUse"
       id="clipPath82">
      <path
         d="M 0,595 H 842 V 0 H 0 Z"
         transform="translate(-404.38571,-315.17381)"
         id="path82" />
    </clipPath>
    <clipPath
       clipPathUnits="userSpaceOnUse"
       id="clipPath84">
      <path
         d="M 0,595 H 842 V 0 H 0 Z"
         transform="translate(-407.55371,-312.53031)"
         id="path84" />
    </clipPath>
    <clipPath
       clipPathUnits="userSpaceOnUse"
       id="clipPath86">
      <path
         d="M 0,595 H 842 V 0 H 0 Z"
         transform="translate(-405.54101,-309.71291)"
         id="path86" />
    </clipPath>
    <clipPath
       clipPathUnits="userSpaceOnUse"
       id="clipPath88">
      <path
         d="M 0,595 H 842 V 0 H 0 Z"
         transform="translate(-408.12991,-306.97661)"
         id="path88" />
    </clipPath>
    <clipPath
       clipPathUnits="userSpaceOnUse"
       id="clipPath90">
      <path
         d="M 0,595 H 842 V 0 H 0 Z"
         transform="translate(-407.26951,-303.06841)"
         id="path90" />
    </clipPath>
    <clipPath
       clipPathUnits="userSpaceOnUse"
       id="clipPath92">
      <path
         d="M 0,595 H 842 V 0 H 0 Z"
         transform="translate(-405.12891,-300.99801)"
         id="path92" />
    </clipPath>
    <clipPath
       clipPathUnits="userSpaceOnUse"
       id="clipPath94">
      <path
         d="M 0,595 H 842 V 0 H 0 Z"
         transform="translate(-362.02151,-283.86521)"
         id="path94" />
    </clipPath>
    <clipPath
       clipPathUnits="userSpaceOnUse"
       id="clipPath96">
      <path
         d="M 0,595 H 842 V 0 H 0 Z"
         transform="translate(-361.24221,-283.127)"
         id="path96" />
    </clipPath>
    <clipPath
       clipPathUnits="userSpaceOnUse"
       id="clipPath98">
      <path
         d="M 0,595 H 842 V 0 H 0 Z"
         transform="translate(-393.89451,-285.84671)"
         id="path98" />
    </clipPath>
    <clipPath
       clipPathUnits="userSpaceOnUse"
       id="clipPath100">
      <path
         d="M 0,595 H 842 V 0 H 0 Z"
         transform="translate(-388.26861,-282.17291)"
         id="path100" />
    </clipPath>
    <clipPath
       clipPathUnits="userSpaceOnUse"
       id="clipPath102">
      <path
         d="M 0,595 H 842 V 0 H 0 Z"
         transform="translate(-383.15431,-278.03611)"
         id="path102" />
    </clipPath>
    <clipPath
       clipPathUnits="userSpaceOnUse"
       id="clipPath104">
      <path
         d="M 0,595 H 842 V 0 H 0 Z"
         transform="translate(-391.53521,-275.0615)"
         id="path104" />
    </clipPath>
    <clipPath
       clipPathUnits="userSpaceOnUse"
       id="clipPath106">
      <path
         d="M 0,595 H 842 V 0 H 0 Z"
         transform="translate(-367.90231,-282.0146)"
         id="path106" />
    </clipPath>
    <clipPath
       clipPathUnits="userSpaceOnUse"
       id="clipPath108">
      <path
         d="M 0,595 H 842 V 0 H 0 Z"
         transform="translate(-372.44141,-277.7246)"
         id="path108" />
    </clipPath>
    <clipPath
       clipPathUnits="userSpaceOnUse"
       id="clipPath110">
      <path
         d="M 0,595 H 842 V 0 H 0 Z"
         transform="translate(-373.49021,-277.72271)"
         id="path110" />
    </clipPath>
    <clipPath
       clipPathUnits="userSpaceOnUse"
       id="clipPath112">
      <path
         d="M 0,595 H 842 V 0 H 0 Z"
         transform="translate(-360.40141,-286.3535)"
         id="path112" />
    </clipPath>
    <clipPath
       clipPathUnits="userSpaceOnUse"
       id="clipPath114">
      <path
         d="M 0,595 H 842 V 0 H 0 Z"
         transform="translate(-365.67581,-281.88871)"
         id="path114" />
    </clipPath>
  </defs>
  <g
     id="layer-MC1"
     transform="translate(-454.07332,-335.5744)">
    <path
       id="path3"
       d="m 0,0 c 0,-20.315 -16.47,-36.786 -36.786,-36.786 -20.316,0 -36.785,16.471 -36.785,36.786 0,20.315 16.469,36.785 36.785,36.785 C -16.47,36.785 0,20.315 0,0"
       style="fill:#176fc1;fill-opacity:1;fill-rule:evenodd;stroke:none"
       transform="matrix(1.3333333,0,0,-1.3333333,552.168,384.62107)"
       clip-path="url(#clipPath4)" />
    <path
       id="path5"
       d="m 0,0 c 0,-14.021 -11.366,-25.389 -25.388,-25.389 -14.021,0 -25.388,11.368 -25.388,25.389 0,14.021 11.367,25.388 25.388,25.388 C -11.366,25.388 0,14.021 0,0"
       style="fill:#ffffff;fill-opacity:1;fill-rule:evenodd;stroke:none"
       transform="matrix(1.3333333,0,0,-1.3333333,536.72653,384.5156)"
       clip-path="url(#clipPath6)" />
    <path
       id="path7"
       d="M 0,0 C 0,0 20.205,6.282 24,2.188 28.296,-2.451 21.383,-11.084 15.824,-16.24 9.688,-21.93 0.059,-29.162 0.059,-29.162 l -3.707,3.826 c 0,0 14.819,8.502 21.062,15.967 5.615,6.717 4.246,10.367 -0.157,10.86 C 11.393,2.149 0,0 0,0"
       style="fill:#176fc1;fill-opacity:1;fill-rule:evenodd;stroke:none"
       transform="matrix(1.3333333,0,0,-1.3333333,499.32293,376.138)"
       clip-path="url(#clipPath8)" />
    <path
       id="path9"
       d="M 0,0 C 0,0 16.538,3.143 19.999,0.953 23.646,-1.354 18.902,-7.81 12.408,-12.824 7.465,-16.642 -3.511,-23.423 -3.511,-23.423 l -3.615,3.511 c 0,0 13.438,6.048 19.415,11.585 5.377,4.982 6.395,7.749 1.578,8.287 C 9.313,0.47 0,0 0,0"
       style="fill:#176fc1;fill-opacity:1;fill-rule:evenodd;stroke:none"
       transform="matrix(1.3333333,0,0,-1.3333333,497.5312,377.1524)"
       clip-path="url(#clipPath10)" />
    <path
       id="path11"
       d="m 0,0 -3.825,-8.65 h 3.766 l 0.006,-3.163 3.799,8.805 -3.752,-0.01 z"
       style="fill:#176fc1;fill-opacity:1;fill-rule:evenodd;stroke:none"
       transform="matrix(1.3333333,0,0,-1.3333333,503.15627,376.8984)"
       clip-path="url(#clipPath12)" />
    <path
       id="path13"
       d="m 0,0 c 0,0 -20.205,-6.283 -24,-2.188 -4.297,4.639 2.617,13.271 8.176,18.427 6.136,5.691 15.765,12.922 15.765,12.922 l 3.707,-3.826 c 0,0 -14.819,-8.502 -21.062,-15.966 C -23.03,2.651 -21.66,-0.999 -17.258,-1.491 -11.393,-2.15 0,0 0,0"
       style="fill:#33bdf2;fill-opacity:1;fill-rule:evenodd;stroke:none"
       transform="matrix(1.3333333,0,0,-1.3333333,506.9036,393.38147)"
       clip-path="url(#clipPath14)" />
    <path
       id="path15"
       d="m 0,0 c 0,0 -16.538,-3.144 -19.999,-0.954 -3.647,2.308 1.098,8.764 7.592,13.778 4.943,3.817 15.918,10.598 15.918,10.598 l 3.616,-3.511 c 0,0 -13.438,-6.047 -19.416,-11.585 C -17.665,3.344 -18.683,0.578 -13.866,0.039 -9.312,-0.471 0,0 0,0"
       style="fill:#33bdf2;fill-opacity:1;fill-rule:evenodd;stroke:none"
       transform="matrix(1.3333333,0,0,-1.3333333,508.694,392.3672)"
       clip-path="url(#clipPath16)" />
    <path
       id="path17"
       d="M 0,0 0.161,0.602 C 0.699,0.639 1.117,0.59 1.414,0.456 1.711,0.321 1.894,0.105 1.963,-0.191 2.047,-0.559 1.903,-0.91 1.529,-1.246 1.155,-1.582 0.597,-1.836 -0.147,-2.009 c -0.787,-0.182 -1.425,-0.206 -1.916,-0.069 -0.491,0.136 -0.781,0.397 -0.871,0.785 -0.079,0.338 0.029,0.652 0.321,0.942 0.174,0.173 0.441,0.335 0.804,0.486 l 0.352,-0.502 c -0.237,-0.09 -0.416,-0.202 -0.533,-0.338 -0.118,-0.137 -0.16,-0.278 -0.125,-0.426 0.047,-0.204 0.211,-0.34 0.492,-0.409 0.282,-0.068 0.705,-0.036 1.269,0.095 0.6,0.138 1.012,0.3 1.237,0.486 0.225,0.184 0.314,0.378 0.267,0.58 C 1.116,-0.231 1.006,-0.123 0.818,-0.053 0.632,0.017 0.359,0.034 0,0"
       style="fill:#ffffff;fill-opacity:1;fill-rule:evenodd;stroke:none"
       transform="matrix(1.3333333,0,0,-1.3333333,464.1068,392.64587)"
       clip-path="url(#clipPath18)" />
    <path
       id="path19"
       d="M 0,0 -4.803,-0.641 -4.879,-0.068 -2.991,0.184 -3.139,1.291 -5.027,1.039 -5.104,1.61 -0.301,2.252 -0.225,1.68 -2.331,1.398 -2.184,0.291 -0.077,0.572 Z"
       style="fill:#ffffff;fill-opacity:1;fill-rule:evenodd;stroke:none"
       transform="matrix(1.3333333,0,0,-1.3333333,466.19267,390.9896)"
       clip-path="url(#clipPath20)" />
    <path
       id="path21"
       d="M 0,0 -1.789,-0.469 0.028,-0.783 Z M 1.873,1.119 1.896,0.498 0.807,0.212 0.85,-0.926 l 1.107,-0.191 0.022,-0.619 -4.881,0.91 -0.024,0.629 z"
       style="fill:#ffffff;fill-opacity:1;fill-rule:evenodd;stroke:none"
       transform="matrix(1.3333333,0,0,-1.3333333,463.11973,385.5208)"
       clip-path="url(#clipPath22)" />
    <path
       id="path23"
       d="m 0,0 -4.837,0.283 0.033,0.555 3.306,0.974 -3.237,0.19 0.03,0.529 L 0.132,2.25 0.098,1.676 -3.132,0.715 0.031,0.531 Z"
       style="fill:#ffffff;fill-opacity:1;fill-rule:evenodd;stroke:none"
       transform="matrix(1.3333333,0,0,-1.3333333,465.63667,383.87507)"
       clip-path="url(#clipPath24)" />
    <path
       id="path25"
       d="M 0,0 -0.806,0.127 -0.612,1.348 1.309,1.044 C 1.485,0.895 1.63,0.694 1.742,0.445 1.855,0.195 1.893,-0.045 1.856,-0.276 1.811,-0.57 1.664,-0.811 1.419,-0.996 1.174,-1.182 0.846,-1.299 0.436,-1.347 c -0.409,-0.048 -0.844,-0.036 -1.305,0.038 -0.5,0.079 -0.935,0.211 -1.304,0.395 -0.369,0.185 -0.639,0.412 -0.809,0.682 -0.13,0.206 -0.174,0.443 -0.132,0.711 0.055,0.35 0.222,0.603 0.503,0.76 0.279,0.157 0.642,0.23 1.089,0.216 L -1.43,0.866 C -1.672,0.863 -1.869,0.818 -2.021,0.73 -2.175,0.643 -2.265,0.516 -2.291,0.353 -2.33,0.104 -2.227,-0.115 -1.98,-0.305 c 0.246,-0.189 0.634,-0.326 1.165,-0.41 0.571,-0.091 1.012,-0.084 1.322,0.02 0.309,0.102 0.483,0.275 0.52,0.515 C 1.047,-0.061 1.025,0.065 0.964,0.198 0.902,0.331 0.82,0.449 0.719,0.553 L 0.104,0.651 Z"
       style="fill:#ffffff;fill-opacity:1;fill-rule:evenodd;stroke:none"
       transform="matrix(1.3333333,0,0,-1.3333333,463.78907,378.19267)"
       clip-path="url(#clipPath26)" />
    <path
       id="path27"
       d="M 0,0 0.05,0.564 C 0.366,0.518 0.609,0.525 0.779,0.587 0.949,0.648 1.057,0.764 1.1,0.932 1.145,1.109 1.115,1.26 1.01,1.383 0.904,1.508 0.766,1.592 0.593,1.635 0.482,1.664 0.383,1.669 0.295,1.651 0.207,1.633 0.123,1.584 0.041,1.505 -0.014,1.451 -0.121,1.321 -0.278,1.117 -0.48,0.854 -0.689,0.687 -0.904,0.615 -1.206,0.514 -1.543,0.512 -1.916,0.607 c -0.239,0.061 -0.453,0.159 -0.642,0.291 -0.188,0.133 -0.317,0.288 -0.388,0.465 -0.072,0.177 -0.079,0.369 -0.025,0.58 0.088,0.344 0.284,0.57 0.588,0.676 0.305,0.108 0.674,0.11 1.11,0.008 L -1.382,2.059 C -1.631,2.098 -1.818,2.092 -1.943,2.042 -2.07,1.992 -2.152,1.891 -2.192,1.736 -2.233,1.577 -2.209,1.437 -2.117,1.318 -2.06,1.242 -1.969,1.187 -1.848,1.156 c 0.113,-0.028 0.215,-0.025 0.309,0.009 0.119,0.044 0.268,0.186 0.445,0.427 0.18,0.24 0.344,0.409 0.493,0.508 0.15,0.098 0.335,0.158 0.556,0.178 C 0.177,2.299 0.436,2.271 0.733,2.195 1.004,2.125 1.244,2.017 1.457,1.869 1.671,1.721 1.814,1.551 1.887,1.362 1.961,1.173 1.967,0.959 1.905,0.72 1.816,0.372 1.609,0.141 1.287,0.025 0.965,-0.09 0.535,-0.098 0,0"
       style="fill:#ffffff;fill-opacity:1;fill-rule:evenodd;stroke:none"
       transform="matrix(1.3333333,0,0,-1.3333333,464.42187,376.17973)"
       clip-path="url(#clipPath28)" />
    <path
       id="path29"
       d="M 0,0 -4.564,1.627 -4.37,2.171 -2.576,1.53 -2.201,2.583 -3.995,3.224 -3.801,3.767 0.762,2.14 0.568,1.596 -1.434,2.31 -1.809,1.257 0.193,0.543 Z"
       style="fill:#ffffff;fill-opacity:1;fill-rule:evenodd;stroke:none"
       transform="matrix(1.3333333,0,0,-1.3333333,467.34373,373.3216)"
       clip-path="url(#clipPath30)" />
    <path
       id="path31"
       d="M 0,0 -1.805,0.398 -0.332,-0.71 Z M 2.178,0.141 1.915,-0.423 0.814,-0.181 0.334,-1.212 1.23,-1.888 0.969,-2.448 -2.959,0.589 -2.693,1.159 Z"
       style="fill:#ffffff;fill-opacity:1;fill-rule:evenodd;stroke:none"
       transform="matrix(1.3333333,0,0,-1.3333333,467.10933,367.05333)"
       clip-path="url(#clipPath32)" />
    <path
       id="path33"
       d="m 0,0 0.323,0.479 2.178,-1.478 c 0.346,-0.234 0.573,-0.38 0.685,-0.438 0.177,-0.092 0.341,-0.134 0.492,-0.126 0.15,0.006 0.27,0.077 0.359,0.206 0.09,0.132 0.109,0.264 0.061,0.395 -0.048,0.132 -0.136,0.251 -0.264,0.357 -0.128,0.107 -0.352,0.268 -0.67,0.484 L 0.94,1.388 1.264,1.865 3.374,0.434 C 3.856,0.107 4.187,-0.137 4.37,-0.297 4.552,-0.458 4.687,-0.619 4.778,-0.78 4.869,-0.941 4.916,-1.107 4.92,-1.277 4.922,-1.447 4.861,-1.625 4.736,-1.811 4.584,-2.033 4.426,-2.173 4.258,-2.229 4.092,-2.283 3.915,-2.297 3.729,-2.268 c -0.188,0.03 -0.367,0.086 -0.536,0.17 -0.252,0.125 -0.601,0.34 -1.05,0.645 z"
       style="fill:#ffffff;fill-opacity:1;fill-rule:evenodd;stroke:none"
       transform="matrix(1.3333333,0,0,-1.3333333,465.974,361)"
       clip-path="url(#clipPath34)" />
    <path
       id="path35"
       d="M 0,0 -3.733,3.087 -3.378,3.516 -0.137,2.347 -2.636,4.414 -2.298,4.823 1.437,1.735 1.07,1.293 -2.103,2.428 0.339,0.408 Z"
       style="fill:#ffffff;fill-opacity:1;fill-rule:evenodd;stroke:none"
       transform="matrix(1.3333333,0,0,-1.3333333,473.34507,361.68227)"
       clip-path="url(#clipPath36)" />
    <path
       id="path37"
       d="M 0,0 -3.524,3.324 -3.129,3.744 0.396,0.42 Z"
       style="fill:#ffffff;fill-opacity:1;fill-rule:evenodd;stroke:none"
       transform="matrix(1.3333333,0,0,-1.3333333,475.67707,358.95053)"
       clip-path="url(#clipPath38)" />
    <path
       id="path39"
       d="m 0,0 -4.049,2.846 0.447,0.419 2.981,-2.128 -1.943,3.098 0.447,0.42 2.567,-4.233 z"
       style="fill:#ffffff;fill-opacity:1;fill-rule:evenodd;stroke:none"
       transform="matrix(1.3333333,0,0,-1.3333333,477.25267,357.34507)"
       clip-path="url(#clipPath40)" />
    <path
       id="path41"
       d="m 0,0 -2.989,3.813 1.65,1.294 0.503,-0.641 -1.196,-0.939 0.661,-0.842 1.109,0.87 0.503,-0.642 -1.11,-0.87 0.82,-1.045 L 1.19,1.97 1.693,1.328 Z"
       style="fill:#ffffff;fill-opacity:1;fill-rule:evenodd;stroke:none"
       transform="matrix(1.3333333,0,0,-1.3333333,478.974,355.7656)"
       clip-path="url(#clipPath42)" />
    <path
       id="path43"
       d="M 0,0 0.353,0.228 C 0.58,0.375 0.712,0.483 0.747,0.554 0.782,0.624 0.79,0.711 0.769,0.812 0.749,0.916 0.698,1.028 0.619,1.151 0.53,1.289 0.437,1.387 0.34,1.443 0.243,1.502 0.148,1.517 0.058,1.488 0.013,1.473 -0.106,1.402 -0.3,1.278 L -0.671,1.039 Z m 1.03,-2.66 -2.628,4.07 1.011,0.653 C -0.331,2.228 -0.123,2.311 0.039,2.312 0.201,2.313 0.378,2.242 0.567,2.101 0.757,1.959 0.93,1.768 1.085,1.526 1.282,1.221 1.394,0.936 1.419,0.67 1.442,0.404 1.369,0.179 1.196,-0.006 1.365,-0.044 1.523,-0.104 1.67,-0.185 1.817,-0.266 2.049,-0.428 2.366,-0.672 L 3.169,-1.279 2.598,-1.647 1.685,-0.979 C 1.356,-0.743 1.142,-0.6 1.043,-0.547 0.944,-0.494 0.859,-0.469 0.788,-0.472 0.718,-0.475 0.626,-0.512 0.515,-0.583 L 0.417,-0.646 1.515,-2.347 Z"
       style="fill:#ffffff;fill-opacity:1;fill-rule:evenodd;stroke:none"
       transform="matrix(1.3333333,0,0,-1.3333333,480.19667,350.20573)"
       clip-path="url(#clipPath44)" />
    <path
       id="path45"
       d="M 0,0 0.452,0.34 C 0.63,0.073 0.798,-0.103 0.958,-0.187 1.118,-0.271 1.274,-0.274 1.429,-0.193 1.591,-0.108 1.683,0.015 1.704,0.176 1.725,0.337 1.694,0.496 1.61,0.654 1.558,0.756 1.495,0.832 1.424,0.886 1.352,0.938 1.259,0.969 1.146,0.977 1.067,0.98 0.899,0.973 0.643,0.953 0.312,0.928 0.048,0.971 -0.149,1.082 -0.427,1.238 -0.655,1.486 -0.833,1.827 -0.947,2.047 -1.019,2.271 -1.046,2.5 c -0.027,0.229 0,0.428 0.084,0.599 0.084,0.171 0.223,0.307 0.414,0.408 0.315,0.164 0.613,0.169 0.897,0.015 C 0.632,3.368 0.882,3.095 1.097,2.703 L 0.603,2.402 C 0.465,2.613 0.335,2.75 0.214,2.81 0.093,2.869 -0.038,2.863 -0.18,2.789 -0.325,2.713 -0.411,2.602 -0.439,2.455 -0.458,2.359 -0.437,2.257 -0.379,2.145 -0.325,2.043 -0.255,1.969 -0.167,1.922 -0.054,1.863 0.151,1.848 0.448,1.876 0.747,1.904 0.983,1.896 1.156,1.852 1.33,1.807 1.499,1.708 1.661,1.558 1.825,1.407 1.979,1.196 2.121,0.924 2.251,0.678 2.331,0.426 2.364,0.168 2.397,-0.09 2.367,-0.309 2.276,-0.49 2.185,-0.672 2.029,-0.82 1.811,-0.934 1.493,-1.101 1.183,-1.103 0.882,-0.94 0.579,-0.777 0.285,-0.465 0,0"
       style="fill:#ffffff;fill-opacity:1;fill-rule:evenodd;stroke:none"
       transform="matrix(1.3333333,0,0,-1.3333333,483.4336,350.07293)"
       clip-path="url(#clipPath46)" />
    <path
       id="path47"
       d="m 0,0 -1.984,4.42 0.527,0.236 1.983,-4.42 z"
       style="fill:#ffffff;fill-opacity:1;fill-rule:evenodd;stroke:none"
       transform="matrix(1.3333333,0,0,-1.3333333,487.54427,350.3464)"
       clip-path="url(#clipPath48)" />
    <path
       id="path49"
       d="M 0,0 -1.439,3.764 -2.227,3.463 -2.518,4.224 -0.404,5.032 -0.113,4.271 -0.9,3.97 0.539,0.206 Z"
       style="fill:#ffffff;fill-opacity:1;fill-rule:evenodd;stroke:none"
       transform="matrix(1.3333333,0,0,-1.3333333,489.52867,349.49867)"
       clip-path="url(#clipPath50)" />
    <path
       id="path51"
       d="m 0,0 -0.567,1.958 -1.781,2.406 0.656,0.19 1.168,-1.663 0.091,2.028 0.637,0.185 -0.216,-2.992 0.566,-1.951 z"
       style="fill:#ffffff;fill-opacity:1;fill-rule:evenodd;stroke:none"
       transform="matrix(1.3333333,0,0,-1.3333333,492.48573,348.47267)"
       clip-path="url(#clipPath52)" />
    <path
       id="path53"
       d="m 0,0 c 0.065,-0.548 0.188,-0.956 0.37,-1.221 0.182,-0.265 0.387,-0.384 0.614,-0.357 0.228,0.027 0.398,0.19 0.51,0.488 0.112,0.298 0.135,0.728 0.068,1.29 C 1.496,0.755 1.375,1.161 1.2,1.417 1.025,1.673 0.82,1.787 0.585,1.759 0.35,1.731 0.177,1.57 0.066,1.276 -0.045,0.982 -0.066,0.558 0,0 m -0.588,-0.104 c -0.058,0.492 -0.064,0.91 -0.018,1.253 0.035,0.254 0.096,0.486 0.184,0.694 0.088,0.209 0.193,0.369 0.315,0.478 C 0.053,2.47 0.249,2.558 0.48,2.586 0.896,2.636 1.257,2.455 1.561,2.044 1.863,1.632 2.062,1.034 2.156,0.248 2.249,-0.532 2.197,-1.156 2.002,-1.626 1.806,-2.097 1.5,-2.356 1.084,-2.405 0.663,-2.456 0.303,-2.276 0.002,-1.868 c -0.301,0.408 -0.498,0.996 -0.59,1.764"
       style="fill:#ffffff;fill-opacity:1;fill-rule:evenodd;stroke:none"
       transform="matrix(1.3333333,0,0,-1.3333333,497.42973,344.05853)"
       clip-path="url(#clipPath54)" />
    <path
       id="path55"
       d="M 0,0 -0.132,4.843 1.818,4.896 1.841,4.081 0.467,4.043 0.498,2.891 1.68,2.922 1.701,2.107 0.521,2.075 0.576,0.016 Z"
       style="fill:#ffffff;fill-opacity:1;fill-rule:evenodd;stroke:none"
       transform="matrix(1.3333333,0,0,-1.3333333,501.0312,346.92973)"
       clip-path="url(#clipPath56)" />
    <path
       id="path57"
       d="M 0,0 0.565,0.021 C 0.558,-0.3 0.596,-0.54 0.678,-0.701 c 0.083,-0.16 0.211,-0.252 0.383,-0.274 0.181,-0.023 0.328,0.025 0.437,0.145 0.109,0.12 0.175,0.269 0.197,0.445 0.015,0.114 0.008,0.213 -0.021,0.297 C 1.645,-0.003 1.586,0.074 1.497,0.146 1.437,0.194 1.295,0.283 1.072,0.415 0.786,0.583 0.594,0.77 0.496,0.974 0.358,1.26 0.313,1.595 0.362,1.977 0.394,2.221 0.463,2.445 0.571,2.648 0.68,2.853 0.816,3 0.984,3.093 1.15,3.186 1.342,3.217 1.557,3.189 1.909,3.145 2.156,2.979 2.301,2.689 2.445,2.401 2.493,2.035 2.445,1.59 L 1.869,1.627 C 1.876,1.879 1.848,2.063 1.783,2.183 1.718,2.302 1.606,2.371 1.448,2.392 1.285,2.412 1.15,2.37 1.043,2.266 0.975,2.198 0.932,2.102 0.916,1.977 0.902,1.862 0.918,1.76 0.963,1.672 1.021,1.56 1.18,1.43 1.441,1.282 1.701,1.135 1.891,0.994 2.007,0.857 2.123,0.721 2.206,0.545 2.254,0.328 2.302,0.111 2.307,-0.15 2.268,-0.455 2.232,-0.73 2.154,-0.984 2.034,-1.214 1.914,-1.443 1.765,-1.607 1.586,-1.703 1.406,-1.8 1.195,-1.832 0.951,-1.801 0.595,-1.756 0.339,-1.58 0.184,-1.274 0.029,-0.969 -0.032,-0.543 0,0"
       style="fill:#ffffff;fill-opacity:1;fill-rule:evenodd;stroke:none"
       transform="matrix(1.3333333,0,0,-1.3333333,506.7136,344.90107)"
       clip-path="url(#clipPath58)" />
    <path
       id="path59"
       d="m 0,0 0.473,-0.405 c -0.199,-0.502 -0.422,-0.859 -0.672,-1.068 -0.249,-0.21 -0.523,-0.281 -0.821,-0.215 -0.367,0.081 -0.623,0.363 -0.763,0.845 -0.143,0.483 -0.131,1.097 0.034,1.842 0.175,0.788 0.429,1.375 0.764,1.759 C -0.65,3.141 -0.289,3.29 0.1,3.204 0.437,3.129 0.676,2.896 0.811,2.508 0.893,2.277 0.922,1.965 0.901,1.572 L 0.297,1.472 C 0.319,1.725 0.294,1.934 0.223,2.1 0.15,2.265 0.04,2.363 -0.107,2.396 -0.312,2.441 -0.506,2.352 -0.689,2.127 -0.873,1.902 -1.026,1.508 -1.152,0.941 c -0.133,-0.6 -0.164,-1.043 -0.095,-1.324 0.069,-0.283 0.206,-0.447 0.407,-0.492 0.151,-0.033 0.296,0.02 0.439,0.158 C -0.258,-0.578 -0.124,-0.339 0,0"
       style="fill:#ffffff;fill-opacity:1;fill-rule:evenodd;stroke:none"
       transform="matrix(1.3333333,0,0,-1.3333333,512.79947,345.6432)"
       clip-path="url(#clipPath60)" />
    <path
       id="path61"
       d="M 0,0 1.351,4.652 1.904,4.491 0.554,-0.161 Z"
       style="fill:#ffffff;fill-opacity:1;fill-rule:evenodd;stroke:none"
       transform="matrix(1.3333333,0,0,-1.3333333,513.4088,348.27347)"
       clip-path="url(#clipPath62)" />
    <path
       id="path63"
       d="M 0,0 1.631,4.562 3.605,3.855 3.332,3.088 1.9,3.6 1.539,2.591 2.867,2.115 2.593,1.349 1.265,1.823 0.818,0.572 2.301,0.043 2.026,-0.725 Z"
       style="fill:#ffffff;fill-opacity:1;fill-rule:evenodd;stroke:none"
       transform="matrix(1.3333333,0,0,-1.3333333,514.6588,348.6224)"
       clip-path="url(#clipPath64)" />
    <path
       id="path65"
       d="M 0,0 2.038,4.396 2.543,4.161 2.236,0.729 3.6,3.671 4.082,3.448 2.045,-0.947 1.523,-0.706 1.814,2.651 0.482,-0.224 Z"
       style="fill:#ffffff;fill-opacity:1;fill-rule:evenodd;stroke:none"
       transform="matrix(1.3333333,0,0,-1.3333333,517.74733,349.74613)"
       clip-path="url(#clipPath66)" />
    <path
       id="path67"
       d="m 0,0 0.327,-0.53 c -0.343,-0.417 -0.664,-0.688 -0.966,-0.812 -0.3,-0.123 -0.584,-0.107 -0.846,0.046 -0.326,0.191 -0.483,0.536 -0.47,1.038 0.012,0.503 0.211,1.084 0.596,1.744 0.408,0.698 0.83,1.178 1.265,1.441 C 0.342,3.189 0.731,3.221 1.074,3.021 1.374,2.846 1.529,2.553 1.539,2.14 1.547,1.896 1.48,1.59 1.34,1.223 L 0.734,1.311 C 0.832,1.545 0.872,1.752 0.854,1.932 0.836,2.11 0.762,2.238 0.631,2.314 0.45,2.42 0.238,2.395 -0.006,2.236 -0.248,2.078 -0.516,1.75 -0.809,1.249 -1.119,0.718 -1.283,0.307 -1.304,0.016 c -0.02,-0.29 0.06,-0.489 0.239,-0.592 0.131,-0.077 0.286,-0.071 0.465,0.016 0.178,0.089 0.379,0.275 0.6,0.56"
       style="fill:#ffffff;fill-opacity:1;fill-rule:evenodd;stroke:none"
       transform="matrix(1.3333333,0,0,-1.3333333,524.27867,350.44013)"
       clip-path="url(#clipPath68)" />
    <path
       id="path69"
       d="M 0,0 2.813,3.943 4.52,2.727 4.047,2.063 2.809,2.945 2.188,2.072 3.336,1.254 2.861,0.59 1.713,1.409 0.942,0.328 2.225,-0.587 1.752,-1.25 Z"
       style="fill:#ffffff;fill-opacity:1;fill-rule:evenodd;stroke:none"
       transform="matrix(1.3333333,0,0,-1.3333333,524.05467,353.1016)"
       clip-path="url(#clipPath70)" />
    <path
       id="path71"
       d="m 0,0 c -0.166,0.012 -0.325,-0.014 -0.478,-0.079 -0.151,-0.065 -0.283,-0.153 -0.395,-0.267 -0.142,-0.142 -0.23,-0.287 -0.265,-0.431 -0.035,-0.147 -0.006,-0.265 0.088,-0.356 0.061,-0.061 0.14,-0.099 0.237,-0.114 0.097,-0.016 0.226,-0.009 0.386,0.018 L 0,0 0.865,0.566 1.106,0.598 c 0.18,0.025 0.32,0.088 0.42,0.187 0.084,0.086 0.137,0.176 0.159,0.274 0.021,0.097 0,0.177 -0.065,0.242 C 1.558,1.362 1.482,1.385 1.395,1.367 1.308,1.35 1.229,1.307 1.16,1.236 1.079,1.155 1.011,1.026 0.956,0.852 L 0.865,0.566 Z m 0.058,-2.359 -0.739,-0.276 c -0.02,0.209 -0.001,0.449 0.059,0.721 -0.206,-0.044 -0.385,-0.051 -0.536,-0.019 -0.152,0.033 -0.29,0.111 -0.418,0.237 -0.252,0.251 -0.322,0.559 -0.21,0.927 0.088,0.285 0.252,0.549 0.493,0.792 0.22,0.223 0.455,0.383 0.708,0.484 0.252,0.1 0.52,0.139 0.803,0.118 0.068,0.207 0.148,0.391 0.239,0.553 0.09,0.16 0.19,0.297 0.302,0.41 C 0.966,1.795 1.19,1.924 1.432,1.971 1.674,2.019 1.886,1.952 2.067,1.772 2.242,1.599 2.304,1.387 2.251,1.138 2.2,0.888 2.065,0.653 1.848,0.435 1.71,0.295 1.554,0.187 1.382,0.109 1.209,0.031 0.972,-0.014 0.667,-0.025 l -0.35,-0.912 c 0.131,0.067 0.288,0.169 0.471,0.306 L 1.007,-1.112 C 0.762,-1.289 0.577,-1.414 0.454,-1.488 0.331,-1.561 0.222,-1.615 0.128,-1.652 0.103,-1.764 0.083,-1.895 0.069,-2.046 0.056,-2.195 0.052,-2.301 0.058,-2.359"
       style="fill:#ffffff;fill-opacity:1;fill-rule:evenodd;stroke:none"
       transform="matrix(1.3333333,0,0,-1.3333333,531.56907,355.38027)"
       clip-path="url(#clipPath72)" />
    <path
       id="path73"
       d="M 0,0 3.254,2.379 2.756,3.06 3.414,3.54 4.749,1.714 4.092,1.233 3.594,1.913 0.341,-0.466 Z"
       style="fill:#ffffff;fill-opacity:1;fill-rule:evenodd;stroke:none"
       transform="matrix(1.3333333,0,0,-1.3333333,533.42973,361.97267)"
       clip-path="url(#clipPath74)" />
    <path
       id="path75"
       d="M 0,0 4.137,2.521 5.229,0.73 4.533,0.307 3.742,1.605 2.826,1.047 3.561,-0.157 2.864,-0.582 2.131,0.623 0.996,-0.068 1.816,-1.413 1.121,-1.838 Z"
       style="fill:#ffffff;fill-opacity:1;fill-rule:evenodd;stroke:none"
       transform="matrix(1.3333333,0,0,-1.3333333,534.68227,363.7136)"
       clip-path="url(#clipPath76)" />
    <path
       id="path77"
       d="m 0,0 -0.021,-0.623 c -0.515,-0.158 -0.933,-0.205 -1.253,-0.142 -0.319,0.064 -0.546,0.232 -0.68,0.506 -0.166,0.338 -0.106,0.713 0.182,1.125 0.289,0.412 0.775,0.786 1.46,1.123 C 0.413,2.346 1.03,2.514 1.539,2.492 2.048,2.47 2.39,2.281 2.564,1.924 2.718,1.612 2.685,1.282 2.465,0.933 2.337,0.726 2.111,0.508 1.792,0.277 L 1.336,0.687 C 1.547,0.828 1.694,0.979 1.778,1.137 1.863,1.297 1.872,1.445 1.805,1.58 1.712,1.769 1.521,1.863 1.231,1.867 0.941,1.869 0.536,1.743 0.017,1.487 -0.536,1.217 -0.901,0.965 -1.077,0.733 -1.255,0.503 -1.298,0.295 -1.207,0.108 -1.14,-0.028 -1.007,-0.109 -0.81,-0.135 -0.612,-0.16 -0.342,-0.115 0,0"
       style="fill:#ffffff;fill-opacity:1;fill-rule:evenodd;stroke:none"
       transform="matrix(1.3333333,0,0,-1.3333333,539.5872,367.6588)"
       clip-path="url(#clipPath78)" />
    <path
       id="path79"
       d="M 0,0 4.527,1.722 4.732,1.183 2.952,0.506 3.35,-0.539 5.131,0.138 5.335,-0.401 0.807,-2.123 0.602,-1.584 2.588,-0.829 2.19,0.216 0.205,-0.539 Z"
       style="fill:#ffffff;fill-opacity:1;fill-rule:evenodd;stroke:none"
       transform="matrix(1.3333333,0,0,-1.3333333,537.93493,369.75133)"
       clip-path="url(#clipPath80)" />
    <path
       id="path81"
       d="M 0,0 4.671,1.286 4.818,0.75 2.001,-1.234 5.128,-0.373 5.269,-0.886 0.599,-2.172 0.446,-1.619 3.194,0.329 0.142,-0.512 Z"
       style="fill:#ffffff;fill-opacity:1;fill-rule:evenodd;stroke:none"
       transform="matrix(1.3333333,0,0,-1.3333333,539.18093,373.1016)"
       clip-path="url(#clipPath82)" />
    <path
       id="path83"
       d="m 0,0 c -0.544,-0.093 -0.944,-0.237 -1.2,-0.433 -0.256,-0.194 -0.365,-0.404 -0.326,-0.63 0.039,-0.226 0.211,-0.387 0.513,-0.485 0.304,-0.097 0.735,-0.098 1.292,-0.002 0.552,0.094 0.95,0.236 1.198,0.422 0.247,0.189 0.35,0.399 0.31,0.633 -0.04,0.232 -0.21,0.397 -0.509,0.493 C 0.979,0.095 0.554,0.095 0,0 M -0.132,0.581 C 0.355,0.665 0.772,0.692 1.118,0.663 1.373,0.642 1.607,0.592 1.82,0.515 2.033,0.437 2.198,0.341 2.313,0.225 2.471,0.071 2.567,-0.12 2.607,-0.349 2.679,-0.763 2.517,-1.132 2.12,-1.455 1.725,-1.778 1.137,-2.007 0.356,-2.141 c -0.773,-0.132 -1.4,-0.112 -1.878,0.059 -0.479,0.173 -0.754,0.464 -0.825,0.878 -0.072,0.417 0.089,0.787 0.481,1.107 0.392,0.323 0.97,0.547 1.734,0.678"
       style="fill:#ffffff;fill-opacity:1;fill-rule:evenodd;stroke:none"
       transform="matrix(1.3333333,0,0,-1.3333333,543.40493,376.62627)"
       clip-path="url(#clipPath84)" />
    <path
       id="path85"
       d="M 0,0 4.793,0.374 4.838,-0.201 0.857,-0.512 0.969,-1.936 0.156,-1.998 Z"
       style="fill:#ffffff;fill-opacity:1;fill-rule:evenodd;stroke:none"
       transform="matrix(1.3333333,0,0,-1.3333333,540.72133,380.3828)"
       clip-path="url(#clipPath86)" />
    <path
       id="path87"
       d="m 0,0 c -0.552,0.008 -0.972,-0.061 -1.259,-0.205 -0.287,-0.146 -0.432,-0.332 -0.435,-0.562 -0.004,-0.229 0.134,-0.419 0.416,-0.57 0.28,-0.151 0.704,-0.23 1.269,-0.238 0.559,-0.009 0.977,0.057 1.254,0.196 0.277,0.141 0.418,0.328 0.421,0.565 0.003,0.237 -0.134,0.429 -0.409,0.579 C 0.98,-0.086 0.562,-0.008 0,0 M -0.024,0.596 C 0.47,0.589 0.886,0.539 1.22,0.447 1.467,0.379 1.688,0.287 1.883,0.173 2.078,0.059 2.223,-0.066 2.315,-0.201 2.442,-0.381 2.503,-0.587 2.499,-0.819 2.493,-1.239 2.267,-1.572 1.819,-1.818 1.37,-2.064 0.751,-2.182 -0.04,-2.17 c -0.785,0.011 -1.397,0.145 -1.837,0.4 -0.439,0.257 -0.657,0.595 -0.651,1.014 0.006,0.424 0.231,0.758 0.675,1.002 0.446,0.244 1.055,0.36 1.829,0.35"
       style="fill:#ffffff;fill-opacity:1;fill-rule:evenodd;stroke:none"
       transform="matrix(1.3333333,0,0,-1.3333333,544.1732,384.0312)"
       clip-path="url(#clipPath88)" />
    <path
       id="path89"
       d="m 0,0 0.809,-0.096 -0.143,-1.227 -1.932,0.226 c -0.182,0.143 -0.336,0.337 -0.458,0.581 -0.122,0.245 -0.171,0.485 -0.143,0.717 0.035,0.296 0.172,0.541 0.409,0.736 0.237,0.196 0.561,0.326 0.968,0.391 0.406,0.064 0.842,0.068 1.304,0.014 C 1.318,1.283 1.758,1.17 2.134,1 2.51,0.83 2.789,0.614 2.97,0.352 3.108,0.151 3.162,-0.084 3.131,-0.354 3.09,-0.705 2.933,-0.966 2.659,-1.134 2.387,-1.303 2.026,-1.389 1.579,-1.394 l -0.116,0.585 c 0.242,0.013 0.437,0.067 0.586,0.161 0.15,0.093 0.234,0.222 0.254,0.388 C 2.332,-0.01 2.22,0.205 1.965,0.384 1.712,0.562 1.318,0.684 0.785,0.746 0.211,0.814 -0.229,0.79 -0.535,0.674 -0.84,0.559 -1.006,0.38 -1.035,0.137 c -0.014,-0.119 0.012,-0.244 0.08,-0.374 0.066,-0.131 0.152,-0.245 0.258,-0.345 l 0.621,-0.073 z"
       style="fill:#ffffff;fill-opacity:1;fill-rule:evenodd;stroke:none"
       transform="matrix(1.3333333,0,0,-1.3333333,543.026,389.24213)"
       clip-path="url(#clipPath90)" />
    <path
       id="path91"
       d="m 0,0 1.994,-0.429 2.961,0.427 -0.143,-0.666 -2.018,-0.24 1.742,-1.043 -0.14,-0.647 -2.531,1.607 -1.986,0.427 z"
       style="fill:#ffffff;fill-opacity:1;fill-rule:evenodd;stroke:none"
       transform="matrix(1.3333333,0,0,-1.3333333,540.17187,392.00267)"
       clip-path="url(#clipPath92)" />
    <path
       id="path93"
       d="m 0,0 c -0.127,0.547 -0.461,0.9 -0.984,1.045 0.091,-0.399 0.18,-0.693 0.261,-0.877 L -0.707,0.152 C -0.758,0.006 -0.8,-0.15 -0.826,-0.304 l 0.002,-0.015 c 0.013,-0.071 0.076,-0.154 0.205,-0.261 l -0.006,-0.01 0.023,-0.004 c 0.303,-0.078 0.501,0.108 0.596,0.57 z"
       style="fill:#ffffff;fill-opacity:1;fill-rule:evenodd;stroke:none"
       transform="matrix(1.3333333,0,0,-1.3333333,482.69533,414.8464)"
       clip-path="url(#clipPath94)" />
    <path
       id="path95"
       d="M 0,0 0.014,0.018 -0.012,0.039 C -0.098,0.111 -0.193,0.191 -0.278,0.263 L -0.303,0.269 C -0.539,0.232 -0.777,0.036 -1.01,-0.311 l -0.015,-0.001 c -0.176,-0.087 -0.34,-0.125 -0.494,-0.1 -0.249,-0.436 -0.265,-0.787 -0.057,-1.08 l 0.017,-0.014 c 0.299,0.041 0.496,0.258 0.58,0.655 0.043,0.14 0.11,0.202 0.247,0.189 0.26,-0.057 0.476,0.026 0.646,0.28 l 0.014,0.017 C -0.043,-0.242 -0.014,-0.12 0,0"
       style="fill:#ffffff;fill-opacity:1;fill-rule:evenodd;stroke:none"
       transform="matrix(1.3333333,0,0,-1.3333333,481.65627,415.83067)"
       clip-path="url(#clipPath96)" />
    <path
       id="path97"
       d="m 0,0 -0.011,-0.022 c 0.025,-0.538 0.2,-1.094 0.533,-1.649 L 0.513,-1.694 c 0.003,-0.336 0.02,-0.671 0.079,-1.02 L 0.574,-2.728 c -0.205,0.034 -0.392,0.082 -0.587,0.139 l -0.012,0.018 c -0.129,-0.006 -0.199,-0.063 -0.207,-0.174 l 0.013,-0.018 c -0.004,-0.047 0,-0.088 0.038,-0.114 0.333,-0.204 0.618,-0.509 0.829,-0.917 L 0.654,-3.803 C 0.576,-3.972 0.453,-4.104 0.269,-4.216 L 0.242,-4.237 C 0.16,-4.35 0.158,-4.469 0.234,-4.595 L 0.227,-4.603 c 0.234,-0.228 0.523,-0.205 0.851,0.085 l 0.011,0.023 c -0.053,0.221 -0.042,0.347 0.049,0.379 l 0.015,-0.001 c 0.197,-0.026 0.322,0.035 0.384,0.188 L 1.531,-3.903 C 1.607,-3.487 1.769,-3.191 2,-3.013 L 1.41,-3.185 C 1.352,-3.394 1.244,-3.44 1.089,-3.308 L 1.074,-3.29 C 0.988,-2.907 1.077,-2.804 1.326,-2.961 1.408,-3.024 1.434,-3.09 1.41,-3.185 L 2,-3.013 C 2.113,-3.078 2.155,-3.146 2.116,-3.222 1.971,-3.432 1.922,-3.619 1.947,-3.788 L 1.93,-3.803 C 1.752,-4.114 1.578,-4.45 1.396,-4.808 L 1.402,-4.833 C 1.27,-5.706 1.051,-6.563 0.755,-7.398 1.01,-7.491 1.226,-7.487 1.377,-7.389 l 0.033,0.013 c 0.141,0.061 0.236,0.154 0.273,0.287 l 10e-4,0.016 c 0.021,0.237 0.048,0.466 0.086,0.701 l 0.015,0.016 c -0.117,0.647 0,1.274 0.358,1.88 l 0.017,0.015 c 0.032,0.556 0.229,1.071 0.606,1.55 l 0.006,-0.01 C 2.722,-3.228 2.703,-3.536 2.715,-3.848 l 0.006,-0.024 c 0.256,-0.445 0.48,-0.799 0.646,-1.086 0.042,-0.066 0.086,-0.118 0.151,-0.195 0.07,-0.118 0.091,-0.232 0.057,-0.348 L 3.574,-5.517 C 3.391,-5.875 3.209,-6.218 3.051,-6.571 L 3.058,-6.579 C 2.794,-6.771 2.658,-6.96 2.655,-7.166 L 2.647,-7.173 c 0.158,-0.117 0.32,-0.172 0.48,-0.17 l 0.022,-0.01 c 0.153,0.098 0.316,0.219 0.488,0.38 l 0.017,0.015 c 0.086,0.351 0.193,0.645 0.342,0.902 l 0.01,0.024 C 4.453,-6.199 4.692,-6.483 4.705,-6.883 L 4.704,-6.899 c -0.306,-0.124 -0.558,-0.19 -0.78,-0.17 l 0.007,-0.01 c 0.055,-0.188 0.171,-0.325 0.346,-0.412 l 0.022,-0.026 c 0.224,0.012 0.453,-0.016 0.68,-0.06 l 0.015,-0.017 c 0.183,-0.008 0.332,0.06 0.461,0.167 l 0.025,0.022 c 0.047,0.172 0.011,0.389 -0.102,0.646 l 10e-4,0.016 c -0.594,0.498 -0.9,1.004 -0.931,1.476 -0.008,0.08 0.044,0.14 0.144,0.178 0.087,0.089 0.133,0.156 0.144,0.195 l -0.015,0.018 0.01,0.023 c 0.066,0.202 0.077,0.415 0.046,0.625 L 4.764,-4.21 C 4.677,-4.02 4.551,-3.921 4.382,-3.93 L 4.364,-3.944 C 4.119,-4.21 3.888,-4.477 3.705,-4.747 L 3.696,-4.755 c -0.173,0.311 -0.25,0.612 -0.223,0.912 l -0.014,0.018 c -0.162,0.158 -0.26,0.308 -0.305,0.448 l -0.013,0.019 c 0.082,0.582 0.297,1.113 0.642,1.609 l 0.002,0.016 c 0.01,0.109 0.018,0.205 0.02,0.308 l -0.022,0.027 c -0.058,0.156 -0.184,0.27 -0.381,0.311 L 3.387,-1.101 C 3.247,-1.319 3.119,-1.501 3.01,-1.667 L 2.989,-1.624 C 2.873,-0.856 2.672,-0.059 2.426,0.761 L 2.402,0.786 C 2.256,0.927 2.103,0.987 1.939,0.954 1.909,0.973 1.884,0.951 1.863,0.905 1.741,0.597 1.571,0.293 1.385,-0.01 L 1.384,-0.025 C 1.346,-0.189 1.338,-0.372 1.353,-0.564 c 0.029,-0.035 0.051,-0.044 0.061,-0.038 0.271,0.097 0.352,0.105 0.239,0.011 L 1.645,-0.599 c 0.182,0.08 0.253,0.258 0.205,0.526 L 1.867,-0.06 C 2.201,-0.439 2.423,-0.897 2.519,-1.448 L 2.511,-1.455 2.497,-1.51 2.512,-1.526 c 0.08,-0.183 0.134,-0.371 0.151,-0.547 L 2.668,-2.099 C 2.537,-2.341 2.414,-2.563 2.302,-2.743 L 2.292,-2.767 C 2.169,-2.532 2,-2.367 1.777,-2.275 L 1.754,-2.266 1.36,-2.11 c -0.014,-0.263 -0.139,-0.325 -0.376,-0.2 -0.009,0.241 0.047,0.435 0.18,0.59 l 0.01,0.024 c 0.135,-0.02 0.193,-0.16 0.186,-0.414 l 0.394,-0.156 c 0.016,0.279 0.116,0.508 0.299,0.692 l 0.008,-0.008 c 0.151,-0.094 0.295,-0.075 0.436,0.072 l 0.014,0.055 C 2.406,-1.19 2.223,-0.919 1.969,-0.634 L 1.961,-0.626 C 1.711,-0.747 1.705,-0.914 1.947,-1.149 L 1.944,-1.183 c -0.159,0.19 -0.392,0.346 -0.687,0.436 L 1.247,-0.771 C 1.147,-1.001 1.025,-1.206 0.875,-1.376 L 0.867,-1.384 C 0.675,-1.119 0.615,-0.803 0.711,-0.429 L 0.697,-0.411 C 0.581,-0.274 0.52,-0.149 0.475,-0.026 L 0.461,-0.008 C 0.301,-0.011 0.15,-0.005 0,0"
       style="fill:#ffffff;fill-opacity:1;fill-rule:evenodd;stroke:none"
       transform="matrix(1.3333333,0,0,-1.3333333,525.19267,412.2044)"
       clip-path="url(#clipPath98)" />
    <path
       id="path99"
       d="M 0,0 -0.021,0.015 -0.03,0.036 c -0.084,0.047 -0.145,0.02 -0.162,-0.076 l 0.009,-0.02 c 0.001,-0.879 0.131,-1.796 0.387,-2.768 0.025,-0.137 0.068,-0.254 0.1,-0.375 0.144,-0.415 0.045,-0.735 -0.272,-0.956 L 0.001,-4.174 c -0.122,-0.057 -0.254,-0.118 -0.387,-0.18 0.01,-0.02 0.026,-0.026 0.061,0.003 l 0.019,0.009 0.006,-0.011 c -0.215,-0.124 -0.418,-0.218 -0.615,-0.273 l -0.005,0.01 c -0.178,-0.045 -0.315,-0.121 -0.372,-0.211 l -0.016,-0.02 C -1.37,-4.9 -1.392,-4.96 -1.409,-5.03 c 0.114,-0.243 0.251,-0.404 0.42,-0.473 L -0.97,-5.52 c 0.074,-0.001 0.166,-0.008 0.241,-0.036 l 0.019,-0.015 c 0.332,0.031 0.591,0.139 0.777,0.325 l 0.016,0.02 c 0.113,0.102 0.225,0.155 0.314,0.147 l 0.022,0.01 C 0.473,-6.036 0.272,-6.935 -0.192,-7.771 -0.383,-8.106 -0.52,-8.344 -0.599,-8.493 l -0.02,-0.01 c -0.157,-0.06 -0.256,-0.143 -0.314,-0.232 l -0.019,-0.01 c -0.072,-0.033 -0.117,-0.067 -0.16,-0.11 0.018,-0.091 0.058,-0.124 0.129,-0.089 l 0.031,0.013 c 0.824,0.2 1.343,0.626 1.547,1.305 0.232,0.752 0.388,1.557 0.463,2.383 0.074,0.903 0.398,1.722 0.951,2.451 0.207,0.271 0.24,0.571 0.084,0.906 -0.138,0.11 -0.247,0.133 -0.364,0.066 L 1.708,-1.83 C 1.57,-1.721 1.415,-1.681 1.225,-1.696 L 1.204,-1.705 c 0.034,-0.207 0.113,-0.43 0.258,-0.687 L 1.471,-2.411 C 1.299,-2.652 1.122,-2.884 0.944,-3.115 l -0.005,0.011 c -0.161,0.717 -0.211,1.437 -0.157,2.143 l 0.006,0.015 C 0.739,-0.683 0.63,-0.448 0.455,-0.233 l -0.009,0.02 C 0.298,-0.134 0.153,-0.063 0,0"
       style="fill:#ffffff;fill-opacity:1;fill-rule:evenodd;stroke:none"
       transform="matrix(1.3333333,0,0,-1.3333333,517.69147,417.1028)"
       clip-path="url(#clipPath100)" />
    <path
       id="path101"
       d="M 0,0 -0.004,0.022 C -0.117,0.276 -0.303,0.426 -0.555,0.495 L -0.576,0.491 C -0.718,0.386 -0.909,0.308 -1.141,0.267 L -1.161,0.251 -1.195,0.245 C -1.35,0.218 -1.516,0.188 -1.67,0.162 L -1.666,0.14 -1.686,0.124 C -1.914,0.062 -2.084,0.054 -2.211,0.123 L -2.215,0.146 C -2.32,0.161 -2.426,0.177 -2.551,0.177 L -2.572,0.173 c -0.223,0.098 -0.411,0.064 -0.554,-0.098 0.128,-0.467 0.39,-0.785 0.786,-0.967 l 0.016,-0.019 c 0.113,-0.003 0.249,0.01 0.4,0.058 l -0.002,0.012 0.02,0.015 c 0.263,0.319 0.586,0.491 0.945,0.52 l -0.007,-0.025 c -0.533,-0.982 -0.991,-2.01 -1.381,-3.093 l -0.02,-0.014 C -2.643,-3.636 -2.856,-3.775 -3.021,-3.816 L -3.043,-3.82 c -0.1,-0.017 -0.174,-0.054 -0.234,-0.098 l 0.006,-0.033 10e-4,-0.011 C -3.366,-3.991 -3.462,-4.03 -3.545,-4.079 L -3.566,-4.083 C -3.691,-4.151 -3.845,-4.19 -4.01,-4.219 l 0.004,-0.022 -0.033,-0.006 c -0.182,-0.008 -0.311,-0.055 -0.385,-0.148 0.103,-0.323 0.278,-0.543 0.527,-0.659 l 10e-4,-0.011 c 0.088,-0.041 0.191,-0.047 0.313,-0.025 l 0.024,-0.007 c 0.59,0.081 1.035,0.274 1.344,0.59 0.115,0.123 0.242,0.238 0.382,0.352 0.118,0.045 0.222,0.107 0.287,0.188 l -0.004,0.022 c 0.478,0.325 0.9,0.717 1.24,1.176 0.027,0.04 0.029,0.098 0.005,0.162 -0.191,0.251 -0.416,0.234 -0.661,-0.06 L -0.973,-2.69 c -0.087,-0.028 -0.163,0.015 -0.256,0.089 l -0.015,0.021 c 0.401,0.379 0.648,0.856 0.764,1.425 l -0.003,0.02 C -0.128,-0.89 0.035,-0.519 0,0"
       style="fill:#ffffff;fill-opacity:1;fill-rule:evenodd;stroke:none"
       transform="matrix(1.3333333,0,0,-1.3333333,510.8724,422.61853)"
       clip-path="url(#clipPath102)" />
    <path
       id="path103"
       d="M 0,0 0.02,-0.016 C 0.631,0.134 1.027,0.479 1.199,1.042 1.287,1.306 1.178,1.404 0.889,1.307 L 0.881,1.327 C 0.743,1.275 0.636,1.214 0.553,1.125 L 0.562,1.104 C -0.004,0.965 -0.497,1.118 -0.901,1.562 -1.186,1.851 -1.454,1.948 -1.738,1.841 -1.255,0.963 -0.674,0.354 0,0"
       style="fill:#ffffff;fill-opacity:1;fill-rule:evenodd;stroke:none"
       transform="matrix(1.3333333,0,0,-1.3333333,522.04693,426.58467)"
       clip-path="url(#clipPath104)" />
    <path
       id="path105"
       d="M 0,0 -0.025,-0.001 C -0.129,-0.063 -0.222,-0.157 -0.314,-0.274 -0.399,-0.458 -0.465,-0.626 -0.49,-0.786 l -0.01,-0.022 -0.021,0.01 c -0.061,-0.133 -0.123,-0.264 -0.184,-0.396 l -0.01,-0.021 -0.01,-0.02 c -0.087,-0.269 -0.207,-0.498 -0.363,-0.699 l -0.019,0.01 c -0.301,-0.058 -0.58,-0.126 -0.838,-0.204 l -0.026,-10e-4 c -0.12,-0.018 -0.168,0.066 -0.153,0.257 0.02,0.041 0.019,0.066 -0.036,0.055 -0.641,-0.123 -1.194,-0.459 -1.681,-1 l -0.02,0.009 c 0.09,0.405 -0.067,0.626 -0.471,0.664 -0.131,-0.335 -0.258,-0.634 -0.393,-0.894 l -0.009,-0.02 C -4.8,-3.2 -4.871,-3.354 -4.937,-3.495 l -0.014,-0.031 -0.01,-0.02 C -5.006,-3.588 -5.039,-3.634 -5.068,-3.67 l -0.02,0.01 c -0.038,-0.107 -0.101,-0.189 -0.144,-0.231 -0.03,-0.061 -0.058,-0.122 -0.082,-0.172 l -0.014,-0.032 -0.01,-0.019 C -5.367,-4.15 -5.41,-4.217 -5.479,-4.284 -5.682,-4.562 -5.721,-4.778 -5.642,-4.952 l 0.021,-0.009 c 0.215,-0.149 0.387,-0.181 0.515,-0.091 l 0.02,0.015 c 0.615,0.841 1.283,1.532 2.013,2.059 l 0.014,0.006 c 0.229,-0.07 0.419,-0.034 0.577,0.09 l 0.019,0.017 c 0.339,0.089 0.615,0.096 0.848,0.038 l -0.02,-0.041 c -0.291,-0.148 -0.551,-0.25 -0.795,-0.297 0,0 0.006,-0.016 0.001,-0.051 0.245,-0.164 0.273,-0.214 0.07,-0.144 l 0.009,-0.004 c 0.352,-0.178 0.663,-0.334 0.918,-0.478 l 0.005,0.011 c 0.254,0.066 0.455,0.258 0.616,0.579 l 0.01,0.02 c -0.01,0.191 0.04,0.378 0.181,0.573 l 0.015,0.031 c 0.433,0.106 0.892,0.24 1.349,0.398 L 0.766,-2.239 C 0.06,-2.902 -0.686,-3.545 -1.473,-4.194 -1.748,-4.413 -2.008,-4.651 -2.257,-4.895 -3.369,-5.553 -4.492,-6.206 -5.614,-6.859 -5.803,-6.97 -6.018,-7.192 -6.249,-7.53 c -0.028,-0.035 -0.054,-0.086 -0.066,-0.143 1.16,0.389 2.304,0.957 3.415,1.691 1.07,0.727 2.124,1.5 3.171,2.336 0.457,0.37 0.897,0.784 1.321,1.268 0.211,0.211 0.256,0.414 0.131,0.596 -0.409,0.215 -0.852,0.273 -1.331,0.15 L 0.366,-1.633 C 0.303,-1.665 0.232,-1.706 0.164,-1.749 L 0.154,-1.77 c -0.136,0.027 -0.271,0.003 -0.416,-0.041 l -0.025,-0.001 c 0.168,0.282 0.341,0.598 0.531,0.955 l 0.02,0.015 0.015,0.03 c 0.072,0.128 0.114,0.245 0.125,0.351 l 0.015,0.03 c 0.066,0.143 0.043,0.252 -0.079,0.334 l 0.004,0.011 C 0.211,0.001 0.105,0.038 0.01,0.021 Z"
       style="fill:#ffffff;fill-opacity:1;fill-rule:evenodd;stroke:none"
       transform="matrix(1.3333333,0,0,-1.3333333,490.5364,417.31387)"
       clip-path="url(#clipPath106)" />
    <path
       id="path107"
       d="M 0,0 0.016,0.02 C 0.212,0.556 0.056,0.834 -0.44,0.864 L -0.463,0.869 C -0.594,0.834 -0.728,0.789 -0.85,0.742 L -0.854,0.721 -0.855,0.709 C -1.025,0.648 -1.213,0.625 -1.418,0.626 L -1.422,0.604 C -1.434,0.595 -1.463,0.564 -1.518,0.508 L -1.541,0.512 C -1.752,0.48 -1.98,0.406 -2.242,0.281 -2.252,0.1 -2.224,-0.064 -2.154,-0.19 l 0.019,-0.015 c 0.155,-0.096 0.352,-0.143 0.583,-0.126 l 0.023,-0.003 c 0.224,0.051 0.312,-0.033 0.283,-0.268 l -0.006,-0.033 -0.004,-0.021 c -0.06,-0.469 -0.2,-0.877 -0.445,-1.234 l -0.014,-0.008 c -0.119,-0.093 -0.293,-0.108 -0.541,-0.031 l -0.023,-0.007 c -0.258,-0.102 -0.518,-0.216 -0.764,-0.321 0.114,-0.386 0.396,-0.538 0.82,-0.453 L -2.2,-2.714 c 0.087,-0.026 0.119,-0.1 0.101,-0.2 L -2.104,-2.947 C -2.227,-3.313 -2.415,-3.609 -2.655,-3.808 L -2.67,-3.828 C -2.913,-3.91 -3.119,-4.045 -3.28,-4.245 l 0.022,-0.003 c 0.119,-0.102 0.224,-0.222 0.299,-0.371 l 0.01,-0.015 c 0.195,-0.057 0.372,-0.088 0.57,-0.066 l 0.022,-0.003 c 0.564,0.675 1.128,1.351 1.693,2.038 0.156,0.178 0.269,0.432 0.338,0.75 0.019,0.042 -0.013,0.06 -0.079,0.071 -0.425,-0.142 -0.568,-0.049 -0.443,0.272 l 0.004,0.021 0.004,0.023 c 0,0.126 0.012,0.26 0.048,0.402 l 0.007,0.033 c 0.094,0.211 0.21,0.419 0.326,0.626 l 0.022,-0.004 C -0.268,-0.352 -0.115,-0.196 0,0"
       style="fill:#ffffff;fill-opacity:1;fill-rule:evenodd;stroke:none"
       transform="matrix(1.3333333,0,0,-1.3333333,496.58853,423.03387)"
       clip-path="url(#clipPath108)" />
    <path
       id="path109"
       d="M 0,0 0.006,0.032 C 0.59,0.5 1.338,0.801 2.236,0.916 L 2.26,0.924 C 1.875,0.228 1.429,-0.367 0.918,-0.869 c 0.195,0.33 0.278,0.737 0.263,1.23 0,0 -0.021,0.014 -0.054,0.021 C 0.836,0.342 0.64,0.138 0.553,-0.224 0.522,-0.332 0.467,-0.391 0.359,-0.418 0.02,-0.403 -0.119,-0.55 -0.045,-0.837 L -0.049,-0.858 C 0.08,-0.961 0.126,-1.095 0.076,-1.246 L 0.072,-1.268 C -0.092,-1.489 -0.311,-1.69 -0.57,-1.873 l -0.015,-0.02 c 0.222,-0.484 0.202,-0.925 -0.085,-1.319 L -0.682,-3.221 C -0.977,-3.146 -1.1,-3.262 -1.061,-3.553 l 0.023,-0.005 c 0.16,-0.255 0.173,-0.566 0.039,-0.942 l -0.022,0.006 c -0.27,-0.171 -0.347,-0.419 -0.223,-0.748 l 0.009,-0.014 c 0.21,-0.105 0.31,-0.18 0.304,-0.213 l 0.011,-0.002 c 0.185,-0.054 0.371,-0.099 0.582,-0.126 l 0.033,-0.006 c 0.096,-0.04 0.229,-0.063 0.37,-0.042 L 0.098,-5.65 c 0.201,-0.092 0.357,-0.11 0.457,-0.059 l 0.022,-0.003 0.025,0.007 c 0.244,0.219 0.277,0.476 0.079,0.773 l 0.004,0.022 c -0.078,0.082 -0.177,0.099 -0.31,0.055 L 0.371,-4.877 0.349,-4.873 c -0.252,-0.139 -0.505,-0.151 -0.763,-0.06 l -0.01,0.013 c -0.089,0.141 -0.113,0.328 -0.074,0.549 0.326,0.171 0.635,0.367 0.914,0.592 L 0.43,-3.77 c 0.203,0.18 0.254,0.411 0.177,0.686 L 0.6,-3.059 0.602,-3.049 C 0.428,-3.006 0.271,-2.99 0.121,-2.998 L 0.115,-3.031 0.104,-3.029 c -0.132,-0.102 -0.169,0.008 -0.147,0.334 0.189,0.16 0.34,0.373 0.448,0.662 l 0.004,0.021 c 0.437,0.153 0.841,0.377 1.18,0.682 0.026,0.018 0.054,0.047 0.071,0.078 0.198,0.479 0.469,0.854 0.812,1.112 l 0.01,-0.002 C 2.594,0.032 2.701,0.186 2.818,0.334 L 2.822,0.357 C 2.967,0.4 3.084,0.482 3.182,0.59 l 0.017,0.031 c 0.113,0.186 0.15,0.397 0.108,0.608 L 3.311,1.252 C 3.262,1.362 3.197,1.454 3.123,1.547 L 3.113,1.559 3.117,1.582 C 2.969,1.643 2.824,1.668 2.699,1.667 L 2.693,1.633 2.672,1.637 C 2.496,1.611 2.178,1.554 1.704,1.455 L 1.689,1.435 C 1.602,1.393 1.524,1.339 1.457,1.282 1.221,1.232 1.019,1.187 0.873,1.135 0.773,1.094 0.686,1.042 0.581,0.969 0.341,0.771 0.07,0.729 -0.218,0.836 -0.307,0.852 -0.369,0.816 -0.396,0.731 -0.541,0.232 -0.715,-0.239 -0.919,-0.683 -0.857,-1.24 -0.63,-1.371 -0.238,-1.088 l 0.013,0.01 C -0.205,-0.774 -0.13,-0.411 0,0"
       style="fill:#ffffff;fill-opacity:1;fill-rule:evenodd;stroke:none"
       transform="matrix(1.3333333,0,0,-1.3333333,497.98693,423.0364)"
       clip-path="url(#clipPath110)" />
    <path
       id="path111"
       d="M 0,0 -0.022,-0.011 C -0.152,-0.356 -0.265,-0.717 -0.356,-1.123 -0.442,-1.506 -0.599,-1.901 -0.851,-2.307 -0.93,-2.4 -1.009,-2.496 -1.089,-2.59 L -1.11,-2.615 C -1.16,-2.676 -1.212,-2.736 -1.262,-2.797 L -1.283,-2.822 -1.31,-2.801 C -1.396,-2.904 -1.489,-3.016 -1.583,-3.127 L -1.604,-3.152 C -2.132,-3.605 -2.671,-4.179 -3.218,-4.849 -3.261,-4.916 -3.337,-4.955 -3.43,-4.979 -4.643,-5.324 -5.848,-5.396 -7.071,-5.178 -7.3,-5.469 -7.395,-5.756 -7.347,-6.03 l 0.018,-0.015 c -0.002,-0.072 0.043,-0.14 0.137,-0.203 l 0.007,0.008 c 0.279,-0.087 0.565,-0.166 0.84,-0.221 l 0.025,-0.006 c 0.617,0.055 1.176,0.127 1.685,0.227 l 0.009,-0.007 c 0.338,0.229 0.68,0.339 1.033,0.306 l 0.008,0.008 c -0.426,-0.506 -0.959,-0.985 -1.566,-1.411 l -0.022,-0.027 c -0.161,-0.262 -0.172,-0.502 -0.023,-0.743 l 0.017,-0.015 c 0.157,-0.058 0.305,-0.02 0.436,0.119 l 0.022,0.026 c 0.152,0.005 0.298,0.057 0.427,0.125 l 0.03,0.018 c 0.312,-0.085 0.653,-0.078 1.011,0.017 l 0.016,0.002 c 0.235,-0.227 0.336,-0.474 0.302,-0.724 L -2.94,-8.57 c -0.287,-0.097 -0.559,-0.176 -0.834,-0.208 l 0.007,-0.007 c 0.469,-0.159 0.996,-0.264 1.584,-0.332 l 0.016,0.001 c 0.113,0.153 0.146,0.315 0.122,0.512 l -10e-4,0.017 c -0.136,0.274 -0.264,0.542 -0.385,0.835 l 0.008,0.009 c 0.342,0.094 0.696,0.147 1.063,0.149 l 0.007,0.008 c 0.04,0.186 0.016,0.367 -0.064,0.552 l -0.018,0.014 c -0.417,0.219 -0.834,0.334 -1.271,0.334 l 0.011,-0.404 c 0.285,0.026 0.389,0.01 0.331,-0.043 -0.199,-0.185 -0.305,-0.17 -0.331,0.043 l -0.011,0.404 -0.018,0.016 c 0.209,0.161 0.428,0.389 0.649,0.686 l 0.015,0.017 c 0.475,0.042 0.862,0.258 1.177,0.67 l -0.009,0.006 c 0.03,0.123 -0.027,0.213 -0.18,0.24 l -0.016,-0.002 c -0.585,-0.051 -1.109,-0.081 -1.577,-0.114 l -0.023,0.007 c 1.04,1.047 2.054,2.291 3.03,3.715 0.134,0.195 0.221,0.386 0.292,0.576 -0.025,0.285 -0.04,0.547 -0.068,0.775 l -0.01,0.023 C 0.415,0.092 0.22,0.123 0,0"
       style="fill:#ffffff;fill-opacity:1;fill-rule:evenodd;stroke:none"
       transform="matrix(1.3333333,0,0,-1.3333333,480.5352,411.52867)"
       clip-path="url(#clipPath112)" />
    <path
       id="path113"
       d="M 0,0 C 0.01,0.182 -0.01,0.352 -0.068,0.49 -0.215,0.893 -0.48,1.041 -0.84,0.961 -0.893,0.664 -0.854,0.398 -0.743,0.16 L -0.742,0.135 C -0.77,0.049 -0.792,-0.052 -0.825,-0.148 l 0.001,-0.026 -0.03,0.015 c -0.072,-0.153 -0.128,-0.3 -0.195,-0.443 l 0.016,-0.019 -0.005,-0.011 c 0.156,-0.01 0.309,0.105 0.458,0.345 l 0.005,0.01 c 0.252,-0.043 0.436,0.006 0.553,0.175 C -0.008,-0.07 -0.004,-0.035 0,0"
       style="fill:#ffffff;fill-opacity:1;fill-rule:evenodd;stroke:none"
       transform="matrix(1.3333333,0,0,-1.3333333,487.56773,417.48173)"
       clip-path="url(#clipPath114)" />
  </g>
</svg>
